<svg width="40" height="40" viewBox="0 0 40 40" fill="none" xmlns="http://www.w3.org/2000/svg">
<rect width="40" height="40" rx="20" fill="#34C01D"/>
<path d="M31.9976 21.1736C31.757 23.5927 30.8019 25.8013 29.3428 27.5829L26.7722 25.0134C27.5986 23.9115 28.1591 22.6003 28.3636 21.1736H31.9988H31.9976Z" fill="white"/>
<path d="M18.826 8.00122V11.6341C14.7458 12.22 11.6087 15.7302 11.6087 19.9705C11.6087 24.6211 15.3785 28.3912 20.0289 28.3912C21.9198 28.3912 23.6664 27.7681 25.0714 26.7143L27.6419 29.285C25.5682 30.9811 22.9158 32 20.0289 32C13.3853 32 8 26.6144 8 19.9705C8 13.7333 12.7478 8.6039 18.826 8.00122Z" fill="white" fill-opacity="0.42"/>
<path d="M21.2342 8.0012C26.9166 8.56539 31.4346 13.0849 32 18.7676H28.3649C27.838 15.0805 24.921 12.1634 21.2342 11.6353V8V8.0012Z" fill="white" fill-opacity="0.8"/>
</svg>
