<?xml version="1.0" encoding="utf-8"?>
<!-- Generator: Adobe Illustrator 15.1.0, SVG Export Plug-In . SVG Version: 6.00 Build 0)  -->
<!DOCTYPE svg PUBLIC "-//W3C//DTD SVG 1.1//EN" "http://www.w3.org/Graphics/SVG/1.1/DTD/svg11.dtd">
<svg version="1.1" id="Layer_1" xmlns="http://www.w3.org/2000/svg" xmlns:xlink="http://www.w3.org/1999/xlink" x="0px" y="0px"
	 width="39.269px" height="38.475px" viewBox="0 0 39.269 38.475" enable-background="new 0 0 39.269 38.475" xml:space="preserve">
<g>
	<path fill-rule="evenodd" clip-rule="evenodd" fill="#E31575" d="M30.864,32.749c-7.488,0-14.973,0-22.46,0
		c-2.659-8.891,3.133-11.834,8.459-13.709c-4.919-3.921-3.13-14.87,4.375-13.126c5.183,1.203,4.806,10.258,1.166,13.417
		C28.171,20.667,33.326,24.153,30.864,32.749z"/>
	<path fill-rule="evenodd" clip-rule="evenodd" fill="#E31575" d="M0.237,28.372c0-1.943,0-3.889,0-5.831
		c0.712-2.693,3.946-2.861,6.125-4.085c-8.408-10.678,11.98-10.375,3.5,0.291c1.032,0.038,1.66,0.481,2.333,0.876
		c-3.916,1.044-6.715,3.204-5.833,9.044C4.384,28.504,1.742,29.008,0.237,28.372z"/>
	<path fill-rule="evenodd" clip-rule="evenodd" fill="#E31575" d="M39.031,22.247c0,2.139,0,4.279,0,6.42c-1.943,0-3.888,0-5.834,0
		c0.855-6.01-2.581-7.727-6.125-9.336c1.171-0.255,1.325-0.535,2.334-0.584c-8.21-10.497,11.543-11.326,3.791,0
		C35.529,19.527,38.061,20.108,39.031,22.247z"/>
</g>
</svg>
