<?xml version="1.0" encoding="utf-8"?>
<!-- Generator: Adobe Illustrator 15.1.0, SVG Export Plug-In . SVG Version: 6.00 Build 0)  -->
<!DOCTYPE svg PUBLIC "-//W3C//DTD SVG 1.1//EN" "http://www.w3.org/Graphics/SVG/1.1/DTD/svg11.dtd">
<svg version="1.1" id="Layer_1" xmlns="http://www.w3.org/2000/svg" xmlns:xlink="http://www.w3.org/1999/xlink" x="0px" y="0px"
	 width="39.269px" height="38.475px" viewBox="0 0 39.269 38.475" enable-background="new 0 0 39.269 38.475" xml:space="preserve">
<path fill-rule="evenodd" clip-rule="evenodd" fill="#000" d="M10.081,1.286c1.461-0.356,2.282,0.362,2.304,1.944
	c0.019,1.352,0.145,3.576,0,4.824C12.235,9.35,10.861,10.2,9.576,9.422C8.697,8.891,8.929,7.411,8.929,5.39
	C8.929,3.086,8.557,1.658,10.081,1.286z"/>
<path fill-rule="evenodd" clip-rule="evenodd" fill="#000" d="M28.585,1.286c0.756-0.205,1.907-0.017,2.232,0.648
	c0.349,0.71,0.145,2.286,0.145,3.384c0,1.646,0.237,3.494-0.576,4.032c-0.729,0.483-2.354,0.387-2.735-0.576
	c-0.313-0.788-0.073-2.2-0.073-3.385C27.577,3.265,27.153,1.674,28.585,1.286z"/>
<path fill-rule="evenodd" clip-rule="evenodd" fill="#000" d="M38.307,6.398c0,9.576,0,19.153,0,28.729
	c-0.235,2.536-2.691,2.232-5.76,2.232c-8.352,0-17.092,0-25.634,0c-2.099,0-4.182,0.233-5.04-0.863
	c-0.24-0.308-0.434-1.01-0.577-1.369c0-9.576,0-19.153,0-28.729c0.21-2.67,3.495-2.266,6.409-2.232c0,2.878-0.392,5.684,1.656,6.48
	c1.753,0.683,3.559-0.16,4.032-1.656c0.418-1.325-0.075-3.262,0.216-4.824c4.248,0,8.496,0,12.744,0
	c0.277,2.001-0.465,3.599,0.216,5.112c0.847,1.884,4.537,2.111,5.401,0.216c0.619-1.362-0.081-3.615,0.287-5.328
	C35.103,4.081,38.086,3.858,38.307,6.398z M3.745,13.743c0,7.104,0,14.209,0,21.313c10.704,0,21.408,0,32.113,0
	c0-7.175,0-14.353,0-21.529c-10.682,0-21.362,0-32.041,0C3.732,13.539,3.738,13.64,3.745,13.743z"/>
<path fill-rule="evenodd" clip-rule="evenodd" fill="#000" d="M20.953,16.479c1.49,0.047,3.168-0.094,4.537,0.072
	c0.121,1.205,0.115,2.898,0,4.105c-1.397,0.116-3.284,0.12-4.681,0c-0.166-1.18-0.025-2.664-0.073-3.961
	C20.778,16.591,20.85,16.519,20.953,16.479z"/>
<path fill-rule="evenodd" clip-rule="evenodd" fill="#000" d="M27.866,16.479c1.488,0.047,3.166-0.094,4.535,0.072
	c0.122,1.205,0.118,2.898,0,4.105c-1.396,0.116-3.283,0.12-4.68,0c-0.166-1.18-0.025-2.664-0.071-3.961
	C27.689,16.591,27.762,16.519,27.866,16.479z"/>
<path fill-rule="evenodd" clip-rule="evenodd" fill="#000" d="M7.129,22.455c1.49,0.045,3.164-0.091,4.536,0.073
	c0.116,1.205,0.122,2.898,0,4.104c-1.395,0.119-3.286,0.119-4.681,0c-0.166-1.179-0.025-2.663-0.071-3.96
	C6.953,22.568,7.025,22.496,7.129,22.455z"/>
<path fill-rule="evenodd" clip-rule="evenodd" fill="#000" d="M14.041,22.455c1.491,0.045,3.164-0.091,4.536,0.073
	c0.116,1.205,0.122,2.898,0,4.104c-1.395,0.119-3.286,0.119-4.681,0c-0.166-1.179-0.025-2.663-0.071-3.96
	C13.865,22.568,13.938,22.496,14.041,22.455z"/>
<path fill-rule="evenodd" clip-rule="evenodd" fill="#000" d="M20.953,22.455c1.491,0.045,3.164-0.091,4.537,0.073
	c0.115,1.205,0.121,2.898,0,4.104c-1.395,0.119-3.286,0.119-4.681,0c-0.166-1.179-0.025-2.663-0.073-3.96
	C20.778,22.568,20.85,22.496,20.953,22.455z"/>
<path fill-rule="evenodd" clip-rule="evenodd" fill="#000" d="M27.866,22.455c1.49,0.045,3.163-0.091,4.535,0.073
	c0.118,1.205,0.122,2.898,0,4.104c-1.394,0.119-3.285,0.119-4.68,0c-0.166-1.179-0.025-2.663-0.071-3.96
	C27.689,22.568,27.762,22.496,27.866,22.455z"/>
<path fill-rule="evenodd" clip-rule="evenodd" fill="#000" d="M18.577,28.576c0.122,1.205,0.116,2.898,0,4.104
	c-1.399,0.119-3.281,0.119-4.681,0c-0.119-1.228-0.119-2.949,0-4.175C15.479,28.5,17.031,28.294,18.577,28.576z"/>
<path fill-rule="evenodd" clip-rule="evenodd" fill="#000" d="M25.49,28.576c0.121,1.205,0.115,2.898,0,4.104
	c-1.398,0.119-3.282,0.119-4.681,0c-0.167-1.226-0.025-2.759-0.073-4.104C22.225,28.43,24.102,28.325,25.49,28.576z"/>
<path fill-rule="evenodd" clip-rule="evenodd" fill="#000" d="M32.401,28.576c0.122,1.205,0.118,2.898,0,4.104
	c-1.398,0.119-3.28,0.119-4.68,0c-0.073-1.205-0.212-3.091,0.071-4.175C29.113,28.466,31.059,28.331,32.401,28.576z"/>
<path fill-rule="evenodd" clip-rule="evenodd" fill="#000" d="M7.057,28.504c1.513,0.047,3.215-0.097,4.608,0.071
	c0.122,1.205,0.116,2.898,0,4.104c-1.402,0.115-3.279,0.123-4.681,0C6.908,31.472,6.776,29.592,7.057,28.504z"/>
</svg>
