<svg width="32" height="25" viewBox="0 0 32 25" fill="none" xmlns="http://www.w3.org/2000/svg">
<path d="M30.5977 20.4473C30.5977 22.4102 29.0079 24 27.0463 24H4.55134C2.58975 24 1 22.4102 1 20.4473V5.05635C1 3.09476 2.58975 1.50366 4.55134 1.50366H27.0463C29.0079 1.50366 30.5977 3.09476 30.5977 5.05635V20.4473V20.4473Z" stroke="#000" stroke-width="2" stroke-miterlimit="10"/>
<path d="M30.5996 7.78455H1.00195V10.867H30.5996V7.78455Z" fill="#000"/>
<path d="M12.1323 17.377H5.16699V19.9448H12.1323V17.377Z" fill="#000"/>
<path d="M22.9327 20.1159C24.8479 20.1159 26.4005 18.5633 26.4005 16.6481C26.4005 14.7329 24.8479 13.1803 22.9327 13.1803C21.0174 13.1803 19.4648 14.7329 19.4648 16.6481C19.4648 18.5633 21.0174 20.1159 22.9327 20.1159Z" fill="#000"/>
</svg>
