<?xml version="1.0" encoding="utf-8"?>
<!-- Generator: Adobe Illustrator 15.1.0, SVG Export Plug-In . SVG Version: 6.00 Build 0)  -->
<!DOCTYPE svg PUBLIC "-//W3C//DTD SVG 1.1//EN" "http://www.w3.org/Graphics/SVG/1.1/DTD/svg11.dtd">
<svg version="1.1" id="Layer_1" xmlns="http://www.w3.org/2000/svg" xmlns:xlink="http://www.w3.org/1999/xlink" x="0px" y="0px"
	 width="39.27px" height="38.475px" viewBox="0 0 39.27 38.475" enable-background="new 0 0 39.27 38.475" xml:space="preserve">
<g>
	<path fill-rule="evenodd" clip-rule="evenodd" fill="#000" d="M18.928,0.93c0.681,0,1.359,0,2.04,0
		c5.254,0.391,9.092,2.545,11.945,5.399c2.852,2.852,5.008,6.691,5.397,11.944c0,0.68,0,1.359,0,2.039
		c-0.391,5.254-2.546,9.094-5.397,11.945c-2.854,2.852-6.692,5.008-11.945,5.398c-0.681,0-1.359,0-2.04,0
		c-5.252-0.391-9.092-2.547-11.944-5.398c-2.854-2.852-5.008-6.691-5.398-11.945c0-0.679,0-1.359,0-2.039
		c0.033-0.01,0.049-0.036,0.042-0.086c0.37-5.24,2.521-9.067,5.356-11.901C9.83,3.441,13.715,1.345,18.928,0.93z M9.491,9.516
		c-2.175,2.396-4.023,5.883-3.783,10.413c0.232,4.367,1.972,7.492,4.463,9.777c2.429,2.23,5.775,4.045,10.372,3.826
		c4.137-0.197,7.556-1.928,9.819-4.422c2.186-2.406,4.088-5.781,3.868-10.412c-0.205-4.317-2.09-7.595-4.465-9.777
		c-2.362-2.173-5.873-4.084-10.412-3.868C15.011,5.26,11.637,7.154,9.491,9.516z"/>
	<path fill-rule="evenodd" clip-rule="evenodd" fill="#000" d="M22.287,18.145c1.231-0.645,2.433-1.433,3.698-2.21
		c0.675-0.415,1.459-0.982,2.507-0.595c0.742,0.274,1.563,1.318,1.191,2.55c-0.317,1.044-1.217,1.327-2.041,1.828
		c-1.499,0.91-3.217,2.012-4.719,2.934c-0.684,0.42-1.667,1.221-2.551,1.275c-0.955,0.059-1.83-0.596-2.083-1.361
		c-0.283-0.859-0.084-2.646-0.084-3.826c0-2.697,0-5.072,0-7.82c0-1.859-0.24-3.788,0.595-4.59c1.011-0.973,2.885-0.5,3.358,0.722
		c0.259,0.67,0.128,1.732,0.128,2.678C22.287,12.428,22.287,15.541,22.287,18.145z"/>
</g>
</svg>
