<?xml version="1.0" encoding="utf-8"?>
<!-- Generator: Adobe Illustrator 15.1.0, SVG Export Plug-In . SVG Version: 6.00 Build 0)  -->
<!DOCTYPE svg PUBLIC "-//W3C//DTD SVG 1.1//EN" "http://www.w3.org/Graphics/SVG/1.1/DTD/svg11.dtd">
<svg version="1.1" id="Layer_1" xmlns="http://www.w3.org/2000/svg" xmlns:xlink="http://www.w3.org/1999/xlink" x="0px" y="0px"
	 width="22px" height="22px" viewBox="0 0 22 22" enable-background="new 0 0 22 22" xml:space="preserve"  fill="currentColor">
<g fill="#fff">
	<path fill="#fff"  clip-rule="evenodd" d="M0.059,11.006c0-0.057,0-0.113,0-0.17c0.125-0.339,0.199-0.685,0.341-0.979
		c0.87-1.806,2.634-3.537,4.385-4.811c1.702-1.239,3.875-2.535,6.897-2.299c2.558,0.2,4.688,1.556,6.301,2.895
		c0.792,0.657,1.595,1.431,2.299,2.299c0.497,0.614,1.66,1.959,1.66,2.98c0,0.496-0.397,1.162-0.681,1.618
		c-0.957,1.531-2.055,2.628-3.321,3.661c-1.855,1.516-4.246,3.119-7.536,2.895c-2.438-0.165-4.421-1.352-6.045-2.597
		C2.514,15.086,0.784,13.157,0.059,11.006z M6.062,8.58c-1.808,3.844,1.206,7.768,4.896,7.791c3.064,0.02,5.492-2.352,5.492-5.449
		c0-3.143-2.561-5.66-5.79-5.407C8.313,5.698,6.786,7.039,6.062,8.58z"/>
	<path fill="#fff" clip-rule="evenodd" d="M11.042,8.197c1.605,0.107,2.866,1.268,2.682,3.065
		c-0.331,3.234-5.493,3.103-5.449-0.34C9.976,10.791,10.809,9.793,11.042,8.197z"/>
</g>
</svg>
