<svg xmlns="http://www.w3.org/2000/svg" viewBox="0 0 38 38" width="38" height="38">
	<style>
		tspan { white-space:pre }
		.shp0 { fill: white } 
	</style>
	<g id="Page 1">
		<path id="Path 1" fill-rule="evenodd" class="shp0" d="M0 5.7C0 2.55 2.55 0 5.7 0L32.3 0C35.45 0 38 2.55 38 5.7L38 24.64C38 24.68 38 24.72 38 24.77L38 32.3C38 35.45 35.45 38 32.3 38L5.76 38C5.72 38 5.67 38 5.62 38C2.51 37.96 0 35.42 0 32.3L0 5.7ZM5.7 3.8C4.65 3.8 3.8 4.65 3.8 5.7L3.8 32.3C3.8 33.12 4.31 33.81 5.03 34.08L25.26 13.86C26 13.11 27.2 13.11 27.94 13.86L34.2 20.11L34.2 5.7C34.2 4.65 33.35 3.8 32.3 3.8L5.7 3.8ZM32.3 34.2C33.35 34.2 34.2 33.35 34.2 32.3L34.2 25.49L26.6 17.89L10.29 34.2L32.3 34.2ZM16.72 11.4C16.72 13.5 15.02 15.2 12.92 15.2C10.82 15.2 9.12 13.5 9.12 11.4C9.12 9.3 10.82 7.6 12.92 7.6C15.02 7.6 16.72 9.3 16.72 11.4Z" />
	</g>
</svg>