<?xml version="1.0" encoding="utf-8"?>
<!-- Generator: Adobe Illustrator 15.1.0, SVG Export Plug-In . SVG Version: 6.00 Build 0)  -->
<!DOCTYPE svg PUBLIC "-//W3C//DTD SVG 1.1//EN" "http://www.w3.org/Graphics/SVG/1.1/DTD/svg11.dtd">
<svg version="1.1" id="Layer_3" xmlns="http://www.w3.org/2000/svg" xmlns:xlink="http://www.w3.org/1999/xlink" x="0px" y="0px"
	 width="24px" height="24px" viewBox="0 0 24 24" enable-background="new 0 0 24 24" xml:space="preserve">
<g>
	<g>
		<g>
			<path fill-rule="evenodd" clip-rule="evenodd" fill="#FFFFFF" d="M12.115,0.212c3.815,1.773,7.686,3.49,11.466,5.295
				c0,4.251,0,8.503,0,12.756c-3.983,1.864-8.043,3.651-12.019,5.524c-3.68-1.846-7.501-3.549-11.144-5.433c0-4.237,0-8.474,0-12.71
				C4.207,3.723,8.24,2.046,12.115,0.212z M12.069,1.271c-0.86,0.429-1.804,0.774-2.625,1.243c3.189,1.354,6.297,2.789,9.486,4.144
				c0.772-0.424,1.646-0.748,2.394-1.197C18.237,4.066,15.21,2.612,12.069,1.271z M6.221,3.942C5.024,4.51,3.745,4.997,2.583,5.6
				c3.185,1.419,6.323,2.887,9.532,4.282c1.148-0.511,2.27-1.045,3.362-1.612C12.383,6.836,9.331,5.359,6.221,3.942z M19.437,7.487
				c0,1.827,0,3.653,0,5.479c-1.039,0.466-2.032,1.222-3.039,1.565c-0.027-1.827-0.065-3.648-0.045-5.525
				c-1.117,0.495-2.513,1.111-3.593,1.796c0,3.823,0,7.643,0,11.465c3.195-1.425,6.556-3.083,9.81-4.604c0-3.913,0-7.828,0-11.742
				c-0.031,0-0.063,0-0.093,0C21.493,6.473,20.355,6.871,19.437,7.487z M1.432,17.802c3.432,1.634,6.837,3.294,10.315,4.882
				c0-3.976,0-7.95,0-11.927C8.341,9.144,4.849,7.617,1.432,6.013C1.432,9.944,1.432,13.874,1.432,17.802z"/>
		</g>
	</g>
</g>
</svg>
