<?xml version="1.0" encoding="utf-8"?>
<!-- Generator: Adobe Illustrator 15.1.0, SVG Export Plug-In . SVG Version: 6.00 Build 0)  -->
<!DOCTYPE svg PUBLIC "-//W3C//DTD SVG 1.1//EN" "http://www.w3.org/Graphics/SVG/1.1/DTD/svg11.dtd">
<svg version="1.1" id="Layer_1" xmlns="http://www.w3.org/2000/svg" xmlns:xlink="http://www.w3.org/1999/xlink" x="0px" y="0px"
	 width="13px" height="15px" viewBox="0 0 13 15" enable-background="new 0 0 13 15" xml:space="preserve">
<g>
	<path fill="#FFFFFF" d="M12.896,9.939c-0.124,1.563-0.75,2.793-1.877,3.69c-1.129,0.897-2.615,1.347-4.462,1.347
		c-2.019,0-3.607-0.627-4.765-1.88c-1.157-1.254-1.735-2.975-1.735-5.162V7.047c0-1.396,0.267-2.626,0.8-3.69
		s1.296-1.88,2.288-2.449c0.991-0.569,2.143-0.853,3.455-0.853c1.817,0,3.28,0.449,4.392,1.347c1.11,0.897,1.752,2.158,1.925,3.78
		H9.673c-0.079-0.938-0.362-1.618-0.85-2.04C8.337,2.72,7.596,2.508,6.601,2.508c-1.081,0-1.891,0.357-2.428,1.072
		C3.636,4.295,3.36,5.404,3.346,6.907v1.097c0,1.569,0.257,2.717,0.773,3.441s1.329,1.088,2.439,1.088
		c1.002,0,1.75-0.212,2.245-0.634c0.493-0.422,0.775-1.075,0.849-1.96H12.896z"/>
</g>
</svg>
