<?xml version="1.0" encoding="utf-8"?>
<!-- Generator: Adobe Illustrator 15.1.0, SVG Export Plug-In . SVG Version: 6.00 Build 0)  -->
<!DOCTYPE svg PUBLIC "-//W3C//DTD SVG 1.1//EN" "http://www.w3.org/Graphics/SVG/1.1/DTD/svg11.dtd">
<svg version="1.1" id="Layer_1" xmlns="http://www.w3.org/2000/svg" xmlns:xlink="http://www.w3.org/1999/xlink" x="0px" y="0px"
	 width="19px" height="26px" viewBox="0 0 19 26" enable-background="new 0 0 19 26" xml:space="preserve">
<path fill="#FFFFFF" d="M18.48,13.823L9.128,25.188c-0.34,0.411-0.838,0.662-1.37,0.687c-0.031,0.004-0.063,0.004-0.093,0.004
	c-0.501,0-0.984-0.2-1.34-0.557l-5.682-5.682c-0.74-0.74-0.74-1.938,0-2.679c0.74-0.739,1.938-0.739,2.678,0l4.207,4.207
	l8.026-9.754c0.666-0.808,1.856-0.925,2.668-0.258C19.027,11.822,19.145,13.014,18.48,13.823"/>
<g>
	<path fill="#FFFFFF" d="M9.015,10.635c0-0.454-0.145-0.83-0.433-1.126c-0.289-0.296-0.77-0.563-1.443-0.802
		C6.465,8.469,5.941,8.249,5.567,8.045C4.322,7.377,3.7,6.388,3.7,5.079c0-0.887,0.27-1.617,0.81-2.188
		c0.54-0.572,1.272-0.912,2.197-1.019V0.124h1.283v1.764c0.93,0.134,1.649,0.528,2.157,1.183s0.762,1.506,0.762,2.554h-1.94
		c0-0.673-0.151-1.204-0.453-1.591C8.212,3.645,7.802,3.451,7.283,3.451c-0.513,0-0.914,0.139-1.203,0.417S5.648,4.544,5.648,5.063
		c0,0.465,0.143,0.838,0.429,1.119s0.771,0.546,1.455,0.798s1.222,0.484,1.612,0.697c0.39,0.214,0.719,0.458,0.985,0.734
		c0.268,0.275,0.474,0.592,0.618,0.95c0.144,0.358,0.216,0.777,0.216,1.259c0,0.903-0.275,1.635-0.829,2.197
		c-0.553,0.561-1.325,0.893-2.313,0.994v1.563H6.546v-1.555C5.487,13.7,4.674,13.321,4.104,12.68
		c-0.569-0.642-0.854-1.492-0.854-2.55h1.948c0,0.673,0.169,1.195,0.509,1.563c0.339,0.369,0.819,0.553,1.439,0.553
		c0.609,0,1.073-0.147,1.391-0.441S9.015,11.122,9.015,10.635z"/>
</g>
</svg>
