<?xml version="1.0" encoding="utf-8"?>
<!-- Generator: Adobe Illustrator 15.1.0, SVG Export Plug-In . SVG Version: 6.00 Build 0)  -->
<!DOCTYPE svg PUBLIC "-//W3C//DTD SVG 1.1//EN" "http://www.w3.org/Graphics/SVG/1.1/DTD/svg11.dtd">
<svg version="1.1" id="Layer_1" xmlns="http://www.w3.org/2000/svg" xmlns:xlink="http://www.w3.org/1999/xlink" x="0px" y="0px"
	 width="25px" height="25px" viewBox="0 0 25 25" enable-background="new 0 0 25 25" xml:space="preserve">
<g>
	<g>
		<path fill-rule="evenodd" clip-rule="evenodd" fill="#FFFFFF" d="M7.935,4.86c-0.09-1.828,0.066-3.647-1.584-3.651
			C4.412,1.205,4.835,3.68,4.835,5.894c0,3.75-0.129,7.558,0,11.296c0.08,2.286,0.699,4.122,2.135,5.44
			c1.285,1.18,3.104,2.171,5.305,2.204c3.742,0.056,6.553-2.71,7.645-5.441c0.504-1.262,0.51-3.202-1.033-3.236
			c-1.109-0.026-1.307,1.111-1.723,1.79c-0.57,0.932-1.902,1.719-3.443,1.102c-1.021-0.409-1.758-1.261-1.723-2.755
			c0.057-2.27,2.33-3.409,4.34-2.479c0.439,0.203,0.738,0.54,1.033,0.826c0.141,0.137,0.443,0.66,1.102,0.69
			c0.68,0.028,1.488-0.646,1.516-1.379c0.025-0.705-0.754-1.775-1.24-2.272c-1.309-1.342-3.246-2.07-5.51-1.653
			c0.41-0.924,1.207-1.727,2.137-2.41c0.922-0.681,2.24-0.99,2.41-2.066c0.18-1.153-0.656-1.946-1.516-1.998
			c-0.732-0.044-1.744,0.643-2.412,1.103c-1.355,0.936-2.256,1.968-3.305,3.169c0.127-1.273,0.698-2.143,1.446-3.169
			c0.557-0.762,1.955-1.658,1.998-2.687c0.039-0.892-0.945-1.92-1.721-1.791C10.193,0.522,9.039,3.483,7.935,4.86z"/>
	</g>
</g>
</svg>
