<?xml version="1.0" encoding="utf-8"?>
<!-- Generator: Adobe Illustrator 15.1.0, SVG Export Plug-In . SVG Version: 6.00 Build 0)  -->
<!DOCTYPE svg PUBLIC "-//W3C//DTD SVG 1.1//EN" "http://www.w3.org/Graphics/SVG/1.1/DTD/svg11.dtd">
<svg version="1.1" id="Layer_1" xmlns="http://www.w3.org/2000/svg" xmlns:xlink="http://www.w3.org/1999/xlink" x="0px" y="0px"
	 width="15px" height="14px" viewBox="0 0 15 14" enable-background="new 0 0 15 14" xml:space="preserve">
<g>
	<path fill="#A7A6A6" d="M15,8.922c0,1.106-0.896,2.001-2,2.001H2c-1.104,0-2-0.895-2-2.001V2c0-1.104,0.896-2,2-2h11
		c1.104,0,2,0.896,2,2V8.922z"/>
	<path fill="#A7A6A6" d="M5.837,9.884c0.33,0.782,1.38,1.592,2.002,2.21C8.296,12.549,8.945,13.223,9.786,14
		c0.022-1.328-0.031-3.016,0.032-4.106C8.488,9.826,7.204,9.884,5.837,9.884"/>
</g>
</svg>
