<?xml version="1.0" encoding="utf-8"?>
<!-- Generator: Adobe Illustrator 15.1.0, SVG Export Plug-In . SVG Version: 6.00 Build 0)  -->
<!DOCTYPE svg PUBLIC "-//W3C//DTD SVG 1.1//EN" "http://www.w3.org/Graphics/SVG/1.1/DTD/svg11.dtd">
<svg version="1.1" id="Layer_1" xmlns="http://www.w3.org/2000/svg" xmlns:xlink="http://www.w3.org/1999/xlink" x="0px" y="0px"
	 width="40px" height="25px" viewBox="0 0 40 25" enable-background="new 0 0 40 25" xml:space="preserve">
<linearGradient id="SVGID_1_" gradientUnits="userSpaceOnUse" x1="20.0005" y1="25" x2="20.0005" y2="4.882813e-004">
	<stop  offset="0" style="stop-color:#ABABAB"/>
	<stop  offset="1" style="stop-color:#FFFFFF"/>
</linearGradient>
<path fill="url(#SVGID_1_)" d="M40,21c0,2.209-1.791,4-4,4H4c-2.209,0-4-1.791-4-4V4c0-2.209,1.791-4,4-4h32c2.209,0,4,1.791,4,4V21
	z"/>
<g>
	<path fill="#2F308D" d="M20.538,10.674c-0.018,1.411,1.257,2.198,2.218,2.666c0.986,0.48,1.317,0.788,1.314,1.218
		c-0.008,0.656-0.788,0.946-1.518,0.958c-1.273,0.02-2.013-0.344-2.602-0.618l-0.458,2.146c0.59,0.272,1.683,0.51,2.818,0.52
		c2.66,0,4.4-1.313,4.41-3.35c0.01-2.585-3.574-2.728-3.551-3.883c0.01-0.351,0.344-0.725,1.076-0.819
		c0.361-0.048,1.363-0.085,2.498,0.438l0.444-2.075c-0.61-0.223-1.394-0.436-2.37-0.436C22.313,7.438,20.552,8.769,20.538,10.674z
		 M31.468,7.616c-0.485,0-0.896,0.284-1.077,0.719l-3.802,9.075h2.659l0.529-1.462h3.249l0.307,1.462h2.344l-2.046-9.794H31.468z
		 M31.84,10.262l0.768,3.678h-2.102L31.84,10.262z M17.314,7.616l-2.096,9.794h2.534l2.095-9.794H17.314z M13.566,7.616
		l-2.637,6.666L9.862,8.614c-0.125-0.633-0.62-0.998-1.168-0.998H4.382L4.322,7.9c0.885,0.192,1.891,0.502,2.5,0.833
		c0.373,0.203,0.479,0.38,0.602,0.861l2.02,7.815h2.678l4.105-9.794H13.566z"/>
</g>
</svg>
