<?xml version="1.0" encoding="utf-8"?>
<!-- Generator: Adobe Illustrator 15.1.0, SVG Export Plug-In . SVG Version: 6.00 Build 0)  -->
<!DOCTYPE svg PUBLIC "-//W3C//DTD SVG 1.1//EN" "http://www.w3.org/Graphics/SVG/1.1/DTD/svg11.dtd">
<svg version="1.1" id="Layer_1" xmlns="http://www.w3.org/2000/svg" xmlns:xlink="http://www.w3.org/1999/xlink" x="0px" y="0px"
	 width="22px" height="22px" viewBox="0 0 22 22" enable-background="new 0 0 22 22" xml:space="preserve">
<g>
	<path fill="#FFFFFF" d="M1.1,13.2c0.607,0,1.1,0.491,1.1,1.1v4.4c0,0.292,0.117,0.571,0.323,0.776
		C2.729,19.684,3.009,19.8,3.3,19.8h15.4c0.292,0,0.571-0.116,0.776-0.323c0.207-0.205,0.321-0.484,0.321-0.776v-4.4
		c0-0.606,0.493-1.1,1.101-1.1c0.608,0,1.102,0.491,1.102,1.1v4.4c0,0.875-0.35,1.715-0.968,2.334C20.414,21.652,19.575,22,18.7,22
		H3.3c-0.875,0-1.714-0.348-2.333-0.966C0.348,20.415,0,19.574,0,18.7v-4.4C0,13.691,0.493,13.2,1.1,13.2z"/>
	<path fill="#FFFFFF" d="M10.222,0.322c0.43-0.43,1.125-0.43,1.555,0l5.5,5.5c0.43,0.43,0.43,1.126,0,1.556
		c-0.43,0.43-1.127,0.43-1.557,0L11,2.655L6.277,7.378c-0.429,0.43-1.125,0.43-1.555,0c-0.43-0.43-0.43-1.126,0-1.556L10.222,0.322z
		"/>
	<path fill="#FFFFFF" d="M11,0c0.607,0,1.1,0.493,1.1,1.1v13.2c0,0.608-0.492,1.101-1.1,1.101c-0.608,0-1.101-0.492-1.101-1.101V1.1
		C9.899,0.493,10.393,0,11,0z"/>
</g>
</svg>
