<?xml version="1.0" encoding="utf-8"?>
<!-- Generator: Adobe Illustrator 15.1.0, SVG Export Plug-In . SVG Version: 6.00 Build 0)  -->
<!DOCTYPE svg PUBLIC "-//W3C//DTD SVG 1.1//EN" "http://www.w3.org/Graphics/SVG/1.1/DTD/svg11.dtd">
<svg version="1.1" id="Layer_2" xmlns="http://www.w3.org/2000/svg" xmlns:xlink="http://www.w3.org/1999/xlink" x="0px" y="0px"
	 width="27px" height="23px" viewBox="0 0 27 23" enable-background="new 0 0 27 23" xml:space="preserve">
<path fill="none" d="M20.793,5.7c0-0.801-0.727-1.45-1.62-1.45H7.827c-0.894,0-1.62,0.649-1.62,1.45v0.612v0.344V19.64
	c0,0.817,0.727,1.48,1.62,1.48h11.346c0.894,0,1.62-0.663,1.62-1.48V6.656V6.313V5.7z"/>
<path fill="#FFFFFF" d="M23.75,0.156H3.25C1.455,0.156,0,1.611,0,3.406s1.455,3.25,3.25,3.25H4.5v14.146
	c0,1.128,0.896,2.042,2,2.042h14c1.104,0,2-0.914,2-2.042V6.656h1.25c1.795,0,3.25-1.455,3.25-3.25S25.545,0.156,23.75,0.156z
	 M20.793,19.64c0,0.817-0.727,1.48-1.62,1.48H7.827c-0.894,0-1.62-0.663-1.62-1.48V6.656V6.313V5.7c0-0.801,0.727-1.45,1.62-1.45
	h11.346c0.894,0,1.62,0.649,1.62,1.45v0.612v0.344V19.64z"/>
<g>
	<g>
		<path fill="#FFFFFF" d="M14.899,14.794c0-0.332-0.105-0.606-0.316-0.823s-0.563-0.412-1.055-0.586s-0.875-0.335-1.148-0.483
			c-0.91-0.488-1.365-1.211-1.365-2.168c0-0.648,0.197-1.182,0.592-1.6s0.93-0.666,1.605-0.744V7.112h0.938v1.289
			c0.68,0.098,1.205,0.386,1.576,0.864s0.557,1.101,0.557,1.866h-1.418c0-0.492-0.11-0.88-0.331-1.163s-0.521-0.425-0.899-0.425
			c-0.375,0-0.668,0.102-0.879,0.305s-0.316,0.494-0.316,0.873c0,0.34,0.104,0.612,0.313,0.817s0.563,0.399,1.063,0.583
			s0.893,0.354,1.178,0.51s0.525,0.335,0.721,0.536s0.346,0.433,0.451,0.694s0.158,0.568,0.158,0.92c0,0.66-0.202,1.195-0.606,1.605
			s-0.968,0.652-1.69,0.727v1.143h-0.932V17.12c-0.773-0.086-1.368-0.363-1.784-0.832s-0.624-1.09-0.624-1.863h1.424
			c0,0.492,0.124,0.873,0.372,1.143s0.599,0.404,1.052,0.404c0.445,0,0.784-0.107,1.017-0.322S14.899,15.149,14.899,14.794z"/>
	</g>
</g>
</svg>
