<?xml version="1.0" encoding="utf-8"?>
<!-- Generator: Adobe Illustrator 15.1.0, SVG Export Plug-In . SVG Version: 6.00 Build 0)  -->
<!DOCTYPE svg PUBLIC "-//W3C//DTD SVG 1.1//EN" "http://www.w3.org/Graphics/SVG/1.1/DTD/svg11.dtd">
<svg version="1.1" id="Layer_1" xmlns="http://www.w3.org/2000/svg" xmlns:xlink="http://www.w3.org/1999/xlink" x="0px" y="0px"
	 width="21px" height="21px" viewBox="0 0 21 21" enable-background="new 0 0 21 21" xml:space="preserve">
<g>
	<path fill="#FFFFFF" d="M10.5,1.91c-4.745,0-8.59,3.846-8.59,8.59c0,4.745,3.846,8.591,8.59,8.591c4.745,0,8.591-3.846,8.591-8.591
		C19.091,5.755,15.245,1.91,10.5,1.91z M0,10.5C0,4.701,4.701,0,10.5,0S21,4.701,21,10.5S16.299,21,10.5,21S0,16.299,0,10.5z"/>
	<path fill="#FFFFFF" d="M10.5,3.818c0.527,0,0.954,0.428,0.954,0.955V9.91l3.291,1.645c0.472,0.236,0.663,0.81,0.427,1.281
		s-0.809,0.663-1.281,0.428l-3.817-1.91C9.75,11.191,9.545,10.861,9.545,10.5V4.773C9.545,4.246,9.973,3.818,10.5,3.818z"/>
</g>
</svg>
