<?xml version="1.0" encoding="utf-8"?>
<!-- Generator: Adobe Illustrator 15.1.0, SVG Export Plug-In . SVG Version: 6.00 Build 0)  -->
<!DOCTYPE svg PUBLIC "-//W3C//DTD SVG 1.1//EN" "http://www.w3.org/Graphics/SVG/1.1/DTD/svg11.dtd">
<svg version="1.1" id="Layer_1" xmlns="http://www.w3.org/2000/svg" xmlns:xlink="http://www.w3.org/1999/xlink" x="0px" y="0px"
	 width="24px" height="17px" viewBox="0 0 24 17" enable-background="new 0 0 24 17" xml:space="preserve">
<g>
	<g>
		<path fill="#FFFFFF" d="M7.055,11.654c0-0.496-0.162-0.906-0.486-1.232C6.246,10.1,5.708,9.809,4.951,9.549
			C4.196,9.287,3.609,9.047,3.19,8.823C1.795,8.094,1.097,7.015,1.097,5.582c0-0.968,0.302-1.766,0.908-2.392
			C2.61,2.564,3.431,2.194,4.467,2.078V0.167h1.437v1.928c1.043,0.146,1.849,0.577,2.418,1.292c0.568,0.716,0.853,1.646,0.853,2.792
			H7c0-0.736-0.169-1.316-0.508-1.74C6.154,4.016,5.695,3.804,5.113,3.804c-0.576,0-1.024,0.153-1.348,0.457
			C3.442,4.563,3.282,4.999,3.282,5.564c0,0.509,0.16,0.916,0.479,1.223c0.322,0.307,0.865,0.597,1.631,0.872
			c0.767,0.275,1.37,0.529,1.807,0.762c0.437,0.235,0.806,0.501,1.104,0.804c0.301,0.301,0.532,0.646,0.693,1.037
			c0.161,0.393,0.242,0.85,0.242,1.377c0,0.986-0.309,1.785-0.929,2.4c-0.622,0.613-1.486,0.975-2.594,1.086v1.707H4.286v-1.697
			c-1.186-0.129-2.097-0.545-2.736-1.246c-0.637-0.701-0.957-1.629-0.957-2.785h2.185c0,0.734,0.189,1.305,0.57,1.709
			c0.379,0.402,0.918,0.604,1.612,0.604c0.683,0,1.204-0.16,1.56-0.482C6.876,12.613,7.055,12.188,7.055,11.654z"/>
	</g>
	<path fill="#FFFFFF" d="M17.39,5.478l1.78,1.781h-6.294c-0.688,0-1.242,0.556-1.242,1.242c0,0.685,0.554,1.242,1.242,1.242h6.294
		l-1.78,1.779c-0.481,0.486-0.481,1.271,0.002,1.754c0.483,0.484,1.268,0.484,1.753,0l3.892-3.891
		c0.029-0.031,0.061-0.064,0.089-0.1c0.01-0.012,0.019-0.027,0.031-0.041c0.015-0.018,0.03-0.035,0.042-0.057
		c0.012-0.018,0.02-0.033,0.029-0.051c0.012-0.018,0.022-0.035,0.032-0.055c0.01-0.016,0.018-0.033,0.025-0.053
		c0.008-0.018,0.018-0.038,0.024-0.053c0.009-0.021,0.018-0.04,0.023-0.057c0.006-0.021,0.015-0.039,0.021-0.059
		c0.007-0.018,0.011-0.04,0.015-0.059c0.004-0.019,0.01-0.041,0.014-0.061c0.004-0.022,0.007-0.043,0.011-0.069
		c0.004-0.016,0.008-0.032,0.01-0.048c0.006-0.082,0.006-0.167,0-0.248c-0.002-0.008-0.006-0.016-0.006-0.025
		c-0.004-0.033-0.008-0.066-0.017-0.097c0-0.009-0.004-0.017-0.004-0.025c-0.008-0.031-0.016-0.062-0.024-0.093
		c0-0.004-0.004-0.008-0.004-0.014c-0.061-0.183-0.157-0.354-0.304-0.496C23.04,7.62,23.04,7.618,23.036,7.616l-3.892-3.89
		c-0.485-0.485-1.27-0.485-1.753,0C16.908,4.207,16.908,4.994,17.39,5.478z"/>
</g>
</svg>
