<?xml version="1.0" encoding="utf-8"?>
<!-- Generator: Adobe Illustrator 15.1.0, SVG Export Plug-In . SVG Version: 6.00 Build 0)  -->
<!DOCTYPE svg PUBLIC "-//W3C//DTD SVG 1.1//EN" "http://www.w3.org/Graphics/SVG/1.1/DTD/svg11.dtd">
<svg version="1.1" id="Layer_1" xmlns="http://www.w3.org/2000/svg" xmlns:xlink="http://www.w3.org/1999/xlink" x="0px" y="0px"
	 width="21px" height="22px" viewBox="0 0 21 22" enable-background="new 0 0 21 22" xml:space="preserve">
<g>
	<path fill="#000" d="M4.984,0.055c0.829-0.217,1.295,0.22,1.307,1.182c0.011,0.822,0.083,2.174,0,2.933
		C6.207,4.957,5.427,5.475,4.698,5.001C4.199,4.679,4.332,3.779,4.332,2.55C4.332,1.149,4.12,0.281,4.984,0.055z"/>
	<path fill="#000" d="M15.483,0.055c0.429-0.125,1.082-0.011,1.267,0.394c0.198,0.432,0.082,1.39,0.082,2.058
		c0,1.001,0.135,2.124-0.327,2.451c-0.413,0.294-1.335,0.235-1.551-0.35c-0.178-0.479-0.042-1.338-0.042-2.059
		C14.912,1.258,14.671,0.29,15.483,0.055z"/>
	<path fill="#000" d="M21,3.162c0,5.822,0,11.646,0,17.468c-0.134,1.543-1.527,1.357-3.269,1.357c-4.738,0-9.698,0-14.544,0
		c-1.19,0-2.373,0.142-2.859-0.524C0.191,21.275,0.082,20.849,0,20.63C0,14.809,0,8.984,0,3.162
		c0.119-1.623,1.983-1.377,3.637-1.356c0,1.75-0.223,3.456,0.939,3.939c0.995,0.416,2.019-0.097,2.288-1.006
		c0.237-0.806-0.043-1.984,0.122-2.934c2.411,0,4.82,0,7.231,0c0.156,1.217-0.264,2.188,0.122,3.107
		c0.48,1.146,2.574,1.284,3.064,0.132c0.351-0.828-0.046-2.198,0.162-3.239C19.182,1.754,20.874,1.618,21,3.162z M1.39,7.629
		c0,4.319,0,8.64,0,12.958c6.073,0,12.146,0,18.221,0c0-4.362,0-8.727,0-13.09c-6.062,0-12.121,0-18.18,0
		C1.382,7.505,1.386,7.565,1.39,7.629z"/>
	<path fill="#000" d="M11.153,9.292c0.846,0.028,1.798-0.058,2.574,0.044c0.068,0.732,0.065,1.762,0,2.496
		c-0.793,0.07-1.863,0.072-2.655,0c-0.095-0.718-0.015-1.62-0.042-2.409C11.054,9.36,11.095,9.316,11.153,9.292z"/>
	<path fill="#000" d="M15.075,9.292c0.845,0.028,1.797-0.058,2.573,0.044c0.069,0.732,0.067,1.762,0,2.496
		c-0.792,0.07-1.862,0.072-2.654,0c-0.095-0.718-0.015-1.62-0.041-2.409C14.976,9.36,15.017,9.316,15.075,9.292z"/>
	<path fill="#000" d="M3.31,12.926c0.846,0.027,1.795-0.056,2.574,0.044c0.066,0.732,0.069,1.762,0,2.496
		c-0.791,0.072-1.864,0.072-2.656,0c-0.094-0.717-0.014-1.62-0.041-2.408C3.21,12.993,3.251,12.951,3.31,12.926z"/>
	<path fill="#000" d="M7.231,12.926c0.846,0.027,1.795-0.056,2.574,0.044c0.066,0.732,0.069,1.762,0,2.496
		c-0.791,0.072-1.865,0.072-2.656,0c-0.094-0.717-0.014-1.62-0.041-2.408C7.132,12.993,7.173,12.951,7.231,12.926z"/>
	<path fill="#000" d="M11.153,12.926c0.846,0.027,1.795-0.056,2.574,0.044c0.065,0.732,0.068,1.762,0,2.496
		c-0.791,0.072-1.864,0.072-2.655,0c-0.095-0.717-0.015-1.62-0.042-2.408C11.054,12.993,11.095,12.951,11.153,12.926z"/>
	<path fill="#000" d="M15.075,12.926c0.846,0.027,1.795-0.056,2.573,0.044c0.067,0.732,0.069,1.762,0,2.496
		c-0.791,0.072-1.863,0.072-2.654,0c-0.095-0.717-0.015-1.62-0.041-2.408C14.976,12.993,15.017,12.951,15.075,12.926z"/>
	<path fill="#000" d="M9.805,16.646c0.069,0.733,0.066,1.763,0,2.495c-0.793,0.073-1.862,0.073-2.656,0
		c-0.067-0.746-0.067-1.793,0-2.538C8.047,16.601,8.928,16.476,9.805,16.646z"/>
	<path fill="#000" d="M13.728,16.646c0.068,0.733,0.065,1.763,0,2.495c-0.793,0.073-1.862,0.073-2.655,0
		c-0.095-0.745-0.015-1.677-0.042-2.495C11.875,16.558,12.94,16.494,13.728,16.646z"/>
	<path fill="#000" d="M17.648,16.646c0.069,0.733,0.067,1.763,0,2.495c-0.793,0.073-1.86,0.073-2.654,0
		c-0.042-0.732-0.121-1.878,0.039-2.538C15.783,16.58,16.888,16.498,17.648,16.646z"/>
	<path fill="#000" d="M3.269,16.603c0.858,0.029,1.824-0.059,2.614,0.044c0.069,0.731,0.066,1.762,0,2.495
		c-0.795,0.07-1.861,0.074-2.656,0C3.185,18.408,3.109,17.265,3.269,16.603z"/>
</g>
</svg>
