<?xml version="1.0" encoding="utf-8"?>
<!-- Generator: Adobe Illustrator 15.1.0, SVG Export Plug-In . SVG Version: 6.00 Build 0)  -->
<!DOCTYPE svg PUBLIC "-//W3C//DTD SVG 1.1//EN" "http://www.w3.org/Graphics/SVG/1.1/DTD/svg11.dtd">
<svg version="1.1" id="Layer_2" xmlns="http://www.w3.org/2000/svg" xmlns:xlink="http://www.w3.org/1999/xlink" x="0px" y="0px"
	 width="21px" height="20px" viewBox="0 0 21 20" enable-background="new 0 0 21 20" xml:space="preserve">
<g>
	<path fill="#ff485a" d="M18.543,3.574h-1.787h-1.787V2.681c0-0.711-0.283-1.393-0.785-1.895C13.68,0.282,12.998,0,12.287,0H8.713
		C8.003,0,7.32,0.282,6.817,0.786C6.315,1.288,6.032,1.97,6.032,2.681v0.893H4.245H2.458c-0.494,0-0.894,0.4-0.894,0.894
		c0,0.494,0.399,0.894,0.894,0.894h0.893h0.001v11.617c0,0.713,0.282,1.395,0.785,1.896c0.503,0.503,1.186,0.785,1.896,0.785h8.938
		c0.711,0,1.393-0.282,1.895-0.785c0.502-0.502,0.785-1.184,0.785-1.896V5.362h0.894c0.494,0,0.894-0.4,0.894-0.894
		C19.436,3.974,19.037,3.574,18.543,3.574z M7.819,2.681c0-0.237,0.095-0.464,0.262-0.631c0.168-0.168,0.395-0.262,0.632-0.262
		h3.574c0.238,0,0.465,0.094,0.631,0.262c0.168,0.167,0.264,0.395,0.264,0.631v0.893H7.819V2.681z M15.863,16.979h-0.002
		c0,0.237-0.094,0.465-0.262,0.633c-0.168,0.166-0.396,0.262-0.632,0.262H6.032c-0.237,0-0.464-0.096-0.632-0.262
		c-0.167-0.168-0.262-0.396-0.262-0.633V5.362h10.723h0.002V16.979z"/>
	<path fill="#ff485a" d="M8.713,8.042c-0.495,0-0.894,0.4-0.894,0.894v5.362c0,0.494,0.4,0.894,0.894,0.894
		c0.494,0,0.894-0.399,0.894-0.895V8.936C9.607,8.442,9.208,8.042,8.713,8.042z"/>
	<path fill="#ff485a" d="M12.287,8.042c-0.495,0-0.893,0.4-0.893,0.894v5.362c0,0.494,0.398,0.894,0.893,0.894
		s0.895-0.399,0.895-0.895V8.936C13.182,8.442,12.782,8.042,12.287,8.042z"/>
</g>
</svg>
