<?xml version="1.0" encoding="utf-8"?>
<!-- Generator: Adobe Illustrator 15.1.0, SVG Export Plug-In . SVG Version: 6.00 Build 0)  -->
<!DOCTYPE svg PUBLIC "-//W3C//DTD SVG 1.1//EN" "http://www.w3.org/Graphics/SVG/1.1/DTD/svg11.dtd">
<svg version="1.1" id="Layer_2" xmlns="http://www.w3.org/2000/svg" xmlns:xlink="http://www.w3.org/1999/xlink" x="0px" y="0px"
	 width="15px" height="14px" viewBox="0 0 15 14" enable-background="new 0 0 15 14" xml:space="preserve">
<g>
	<path fill="#7A7A7A" d="M6.078,2.884l0.838-0.838v2.962c0,0.323,0.262,0.584,0.584,0.584s0.584-0.261,0.584-0.584V2.046
		l0.837,0.837c0.229,0.228,0.598,0.227,0.824,0c0.229-0.228,0.229-0.597,0-0.825L7.916,0.228C7.901,0.214,7.886,0.2,7.869,0.186
		C7.863,0.181,7.856,0.177,7.851,0.171c-0.009-0.007-0.018-0.014-0.027-0.02c-0.008-0.005-0.016-0.01-0.024-0.014
		c-0.008-0.005-0.016-0.01-0.024-0.015C7.767,0.119,7.758,0.115,7.749,0.11C7.74,0.106,7.731,0.102,7.724,0.099
		c-0.01-0.004-0.019-0.007-0.026-0.01c-0.01-0.003-0.019-0.007-0.027-0.01C7.661,0.076,7.651,0.074,7.642,0.072
		C7.633,0.069,7.623,0.067,7.613,0.065C7.603,0.063,7.593,0.062,7.581,0.06C7.573,0.059,7.565,0.057,7.558,0.057
		c-0.038-0.003-0.078-0.003-0.116,0c-0.004,0-0.008,0.001-0.012,0.002C7.414,0.06,7.398,0.062,7.384,0.065
		c-0.004,0-0.008,0.002-0.012,0.002C7.357,0.071,7.343,0.075,7.328,0.08c-0.002,0-0.004,0.001-0.007,0.002
		C7.235,0.11,7.155,0.156,7.088,0.224C7.086,0.226,7.085,0.227,7.084,0.228l-1.83,1.831c-0.229,0.228-0.229,0.597,0,0.825
		C5.48,3.111,5.851,3.111,6.078,2.884z"/>
	<path fill="#7A7A7A" d="M11.758,4.302h-1.234v0.002c-0.342,0-0.617,0.277-0.617,0.618c0,0.342,0.275,0.619,0.617,0.619
		c0.012,0,0.021-0.001,0.033-0.002h1.201c0.833,0,1.511,0.678,1.511,1.512v4.147c0,0.834-0.678,1.512-1.511,1.512H3.242
		c-0.833,0-1.511-0.678-1.511-1.512V7.05c0-0.834,0.678-1.512,1.511-1.512h1.195C4.449,5.54,4.46,5.541,4.471,5.541
		c0.341,0,0.618-0.276,0.618-0.619c0-0.339-0.274-0.615-0.613-0.618V4.302H3.242c-1.516,0-2.747,1.233-2.747,2.748v4.147
		c0,1.516,1.231,2.748,2.747,2.748h8.516c1.515,0,2.747-1.232,2.747-2.748V7.05C14.505,5.535,13.272,4.302,11.758,4.302z"/>
	<path fill="#7A7A7A" d="M11.094,6.585v0.002c-0.334,0.025-0.597,0.304-0.597,0.644c0,0.341,0.263,0.619,0.597,0.644v0.002h0.608
		V7.874c0.337-0.022,0.604-0.302,0.604-0.644c0-0.341-0.267-0.622-0.604-0.644V6.585H11.094z"/>
	<path fill="#7A7A7A" d="M4.821,9.207c0,1.479,1.199,2.678,2.679,2.678c1.48,0,2.679-1.199,2.679-2.678
		c0-1.48-1.198-2.679-2.679-2.679C6.021,6.528,4.821,7.727,4.821,9.207z M8.873,9.248c0,0.76-0.614,1.373-1.373,1.373
		c-0.76,0-1.375-0.613-1.375-1.373S6.74,7.872,7.5,7.872C8.259,7.872,8.873,8.488,8.873,9.248z"/>
</g>
</svg>
