<?xml version="1.0" encoding="utf-8"?>
<!-- Generator: Adobe Illustrator 15.1.0, SVG Export Plug-In . SVG Version: 6.00 Build 0)  -->
<!DOCTYPE svg PUBLIC "-//W3C//DTD SVG 1.1//EN" "http://www.w3.org/Graphics/SVG/1.1/DTD/svg11.dtd">
<svg version="1.1" id="Layer_1" xmlns="http://www.w3.org/2000/svg" xmlns:xlink="http://www.w3.org/1999/xlink" x="0px" y="0px"
	 width="21px" height="20px" viewBox="0 0 21 20" enable-background="new 0 0 21 20" xml:space="preserve">
<path fill="#fff" d="M13.738,2.62c2.472,1.342,3.869,2.137,5.625,3.103c-1.842,4.433-4.607,7.943-6.654,12.173
	c-1.856,0.414-3.09,1.453-5.031,1.785c-0.236-1.82-0.618-3.494-0.649-5.52C9.308,10.49,11.799,6.633,13.738,2.62z M14.332,4.749
	c-1.723,3.038-3.573,5.948-5.193,9.089c0.036,0.018,0.044,0.12,0.036,0.018c1.178,0.695,1.473,1.074,2.833,1.763
	c1.828-2.879,3.701-6.083,5.408-9.083C16.576,5.835,15.725,5.233,14.332,4.749z"/>
<path fill="#fff" d="M5.747,18.416H0v1.266h5.747V18.416z"/>
<path fill="#fff" d="M20.703,2.975L15.785,0l-1.006,1.662l4.918,2.975L20.703,2.975z"/>
</svg>
