<?xml version="1.0" encoding="utf-8"?>
<!-- Generator: Adobe Illustrator 15.1.0, SVG Export Plug-In . SVG Version: 6.00 Build 0)  -->
<!DOCTYPE svg PUBLIC "-//W3C//DTD SVG 1.1//EN" "http://www.w3.org/Graphics/SVG/1.1/DTD/svg11.dtd">
<svg version="1.1" id="Layer_1" xmlns="http://www.w3.org/2000/svg" xmlns:xlink="http://www.w3.org/1999/xlink" x="0px" y="0px"
	 width="10px" height="19px" viewBox="0 0 10 19" enable-background="new 0 0 10 19" xml:space="preserve">
<g>
	<path fill="#FFFFFF" d="M7.36,13.069c0-0.562-0.178-1.026-0.535-1.394c-0.358-0.366-0.952-0.696-1.785-0.99
		c-0.833-0.295-1.481-0.567-1.944-0.819c-1.541-0.826-2.31-2.049-2.31-3.669c0-1.098,0.333-2,1.001-2.707S3.36,2.363,4.504,2.23
		V0.069h1.586v2.182c1.15,0.165,2.039,0.652,2.668,1.463C9.387,4.523,9.7,5.576,9.7,6.872H7.301c0-0.833-0.186-1.489-0.561-1.968
		c-0.373-0.48-0.88-0.72-1.522-0.72c-0.635,0-1.13,0.172-1.487,0.516S3.196,5.536,3.196,6.178c0,0.575,0.176,1.036,0.53,1.384
		c0.354,0.347,0.954,0.676,1.8,0.986C6.372,8.859,7.038,9.146,7.52,9.41c0.481,0.265,0.889,0.566,1.219,0.907
		c0.331,0.341,0.586,0.732,0.765,1.176c0.178,0.443,0.267,0.962,0.267,1.558c0,1.117-0.341,2.021-1.025,2.718
		c-0.685,0.692-1.64,1.104-2.861,1.229v1.934H4.307v-1.923c-1.31-0.147-2.316-0.617-3.02-1.408
		c-0.705-0.794-1.056-1.847-1.056-3.155H2.64c0,0.833,0.21,1.478,0.63,1.935c0.42,0.457,1.013,0.684,1.78,0.684
		c0.753,0,1.328-0.181,1.721-0.545C7.163,14.154,7.36,13.671,7.36,13.069z"/>
</g>
</svg>
