<?xml version="1.0" encoding="utf-8"?>
<!-- Generator: Adobe Illustrator 15.1.0, SVG Export Plug-In . SVG Version: 6.00 Build 0)  -->
<!DOCTYPE svg PUBLIC "-//W3C//DTD SVG 1.1//EN" "http://www.w3.org/Graphics/SVG/1.1/DTD/svg11.dtd">
<svg version="1.1" id="Layer_1" xmlns="http://www.w3.org/2000/svg" xmlns:xlink="http://www.w3.org/1999/xlink" x="0px" y="0px"
	 width="20px" height="20px" viewBox="0 0 20 20" enable-background="new 0 0 20 20" xml:space="preserve">
<path fill="#FFFFFF" d="M17.003,2.995c-1.799-1.798-4.268-2.914-7.009-2.914C4.511,0.082,0.081,4.52,0.081,10
	c0,5.479,4.43,9.918,9.913,9.918c4.628,0,8.487-3.161,9.589-7.438h-2.58c-1.018,2.889-3.771,4.959-7.009,4.959
	c-4.106,0-7.442-3.335-7.442-7.438c0-4.104,3.336-7.439,7.442-7.439c2.06,0,3.895,0.855,5.236,2.207L11.234,8.76h8.683V0.082
	L17.003,2.995z"/>
</svg>
