<?xml version="1.0" encoding="utf-8"?>
<!-- Generator: Adobe Illustrator 15.1.0, SVG Export Plug-In . SVG Version: 6.00 Build 0)  -->
<!DOCTYPE svg PUBLIC "-//W3C//DTD SVG 1.1//EN" "http://www.w3.org/Graphics/SVG/1.1/DTD/svg11.dtd">
<svg version="1.1" id="Layer_1" xmlns="http://www.w3.org/2000/svg" xmlns:xlink="http://www.w3.org/1999/xlink" x="0px" y="0px"
	 width="26px" height="26px" viewBox="0 0 26 26" enable-background="new 0 0 26 26" xml:space="preserve">
<path fill="#FFFFFF" d="M23.484,20.074c-0.991-0.992-1.902-1.903-2.841-2.841c-0.48-0.481-0.997-0.903-1.375-1.436
	c0.792-1.377,1.314-2.969,1.314-4.963c0-1.927-0.605-3.676-1.374-4.933c-1.582-2.589-4.15-4.394-7.923-4.694
	c-0.27,0-0.539,0-0.807,0c-2.76,0.181-4.865,1.278-6.429,2.84c-1.485,1.486-2.75,3.73-2.87,6.459c0,0.269,0,0.538,0,0.807
	c0.311,3.755,2.093,6.361,4.694,7.923c1.267,0.761,3,1.374,4.933,1.374c2.013,0,3.62-0.522,4.994-1.345
	c1.383,1.341,2.778,2.779,4.154,4.158c0.733,0.73,1.321,1.537,2.512,1.703c0.141,0,0.279,0,0.419,0
	c1.272-0.214,2.012-0.959,2.213-2.242c0-0.131,0-0.26,0-0.391C24.942,21.33,24.188,20.779,23.484,20.074z M16.309,15.798
	c-1.105,1.231-2.745,2.273-4.874,2.393c-2.26,0.125-4.142-0.682-5.411-1.854c-1.295-1.194-2.221-2.674-2.392-4.874
	C3.44,9,4.354,7.355,5.455,6.081c0.542-0.627,1.188-1.172,2.033-1.615c0.799-0.419,1.78-0.727,2.87-0.807
	c2.326-0.172,4.226,0.751,5.412,1.854c1.19,1.105,2.277,2.646,2.393,4.874C18.283,12.74,17.468,14.508,16.309,15.798z"/>
</svg>
