<svg width="40" height="40" viewBox="0 0 40 40" fill="none" xmlns="http://www.w3.org/2000/svg">
<rect width="40" height="40" rx="20" fill="var(--colors-indigo-500)"/>
<path fill-rule="evenodd" clip-rule="evenodd" d="M25.0685 10.2222C25.2681 10.2222 25.4676 10.2222 25.6672 10.2222C28.0765 10.5532 29.4445 11.9257 29.7778 14.3329C29.7778 14.5324 29.7778 14.732 29.7778 14.9315C29.6931 16.6574 28.6112 17.6146 27.6826 18.5433C26.6943 19.5315 25.757 20.4887 24.849 21.3968C23.9319 22.3138 23.0187 23.3369 21.2173 23.4522C19.8364 23.5405 18.7702 22.9946 18.0445 22.3547C17.798 22.1373 17.5035 21.9035 17.3859 21.5764C17.1491 20.9175 17.5292 20.3947 18.0045 20.2196C18.8293 19.9153 19.2322 20.6662 19.6608 20.9578C19.9951 21.1855 20.4333 21.3562 20.9578 21.3569C21.4868 21.3577 21.912 21.1749 22.2348 20.9578C22.6754 20.6616 23.1073 20.1654 23.532 19.7406C24.3648 18.9078 25.2312 18.0414 26.0462 17.2263C26.4495 16.823 26.9825 16.368 27.2834 15.9292C27.45 15.6865 27.6307 15.2535 27.6626 14.8717C27.7478 13.8481 27.2586 13.1128 26.605 12.6966C25.8235 12.199 24.7814 12.2502 24.0907 12.7165C23.7929 12.9175 23.5565 13.1908 23.3124 13.4348C22.5229 14.2243 21.9483 14.8454 21.0576 15.6698C20.362 15.2315 18.937 15.208 18.1841 15.6099C19.1578 14.5921 20.1939 13.5603 21.2172 12.5369C22.2353 11.5187 23.2036 10.3482 25.0685 10.2222Z" fill="white"/>
<path fill-rule="evenodd" clip-rule="evenodd" d="M14.9115 29.7776C14.7187 29.7776 14.5257 29.7776 14.3329 29.7776C11.9268 29.4432 10.5535 28.0761 10.2222 25.667C10.2222 25.4675 10.2222 25.2679 10.2222 25.0684C10.3223 23.3107 11.3812 22.3928 12.3174 21.4565C13.3109 20.463 14.2577 19.5162 15.171 18.603C16.0801 17.6939 16.9905 16.6282 18.8226 16.5476C20.215 16.4864 21.247 17.0071 21.9755 17.6652C22.2108 17.8777 22.5267 18.1183 22.634 18.4433C22.9225 19.3181 22.0802 20.1644 21.1773 19.7604C20.7652 19.5761 20.5949 19.1831 20.2194 18.9622C19.4825 18.5289 18.4026 18.5945 17.7452 19.0421C17.3218 19.3304 16.8906 19.8568 16.488 20.2593C15.6552 21.0921 14.8216 21.9258 14.0136 22.7336C13.6213 23.1259 13.1063 23.549 12.7764 23.9909C12.4856 24.3804 12.3079 24.9313 12.3375 25.5073C12.4152 27.0237 14.147 28.3091 15.7697 27.3831C16.4139 27.0155 16.8578 26.3946 17.3859 25.8665C17.6328 25.6198 17.8954 25.3572 18.1642 25.0884C18.4149 24.8377 18.666 24.5655 18.9623 24.35C19.6738 24.7609 21.0712 24.7925 21.816 24.3898C20.8497 25.4218 19.7893 26.4365 18.7628 27.463C17.7445 28.4812 16.7972 29.6721 14.9115 29.7776Z" fill="white"/>
</svg>
