<svg width="35" height="26" viewBox="0 0 35 26" fill="none" xmlns="http://www.w3.org/2000/svg">
<path d="M1.75 0H33.25C33.7141 0 34.1592 0.152182 34.4874 0.423068C34.8156 0.693954 35 1.06135 35 1.44444V24.5556C35 24.9386 34.8156 25.306 34.4874 25.5769C34.1592 25.8478 33.7141 26 33.25 26H1.75C1.28587 26 0.840752 25.8478 0.512563 25.5769C0.184374 25.306 0 24.9386 0 24.5556V1.44444C0 1.06135 0.184374 0.693954 0.512563 0.423068C0.840752 0.152182 1.28587 0 1.75 0ZM31.5 6.12156L17.626 16.3771L3.5 6.08978V23.1111H31.5V6.12156ZM4.39425 2.88889L17.6068 12.5118L30.6285 2.88889H4.39425Z" fill="#000"/>
</svg>
