<?xml version="1.0" standalone="no"?>
<!DOCTYPE svg PUBLIC "-//W3C//DTD SVG 20010904//EN"
 "http://www.w3.org/TR/2001/REC-SVG-20010904/DTD/svg10.dtd">
<svg width="143" height="36" viewBox="0 0 143 36" fill="none" xmlns="http://www.w3.org/2000/svg"><path d="M3.0077 23.4527C3.48639 25.3399 4.88806 26.4722 7.24751 26.4722C9.77772 26.4722 10.7691 25.374 10.7691 23.7955C10.7691 22.1482 9.98287 21.3937 6.66644 20.6042C1.7092 19.4033 0.68344 17.8592 0.68344 15.4916C0.68344 13.0553 2.49542 10.6186 6.94038 10.6186C11.4193 10.6186 13.2653 13.2267 13.4709 15.6284H10.5987C10.3252 14.5307 9.47059 12.9517 6.838 12.9517C4.41057 12.9517 3.65835 14.1185 3.65835 15.2512C3.65835 16.5552 4.37618 17.207 7.55624 17.962C12.8214 19.2315 13.8812 20.9815 13.8812 23.5554C13.8812 26.6094 11.4537 28.8402 7.14553 28.8402C2.66658 28.8402 0.444296 26.5749 0 23.4527H3.0077Z" fill="#d5dade"></path><path d="M19.59 20.2614C19.6239 23.7958 21.4019 26.3353 24.3424 26.3353C27.0774 26.3353 27.9668 24.894 28.5135 23.624H31.5564C30.8725 25.8548 28.9922 28.8402 24.2397 28.8402C18.8033 28.8402 16.5811 24.379 16.5811 19.9182C16.5811 14.737 19.1796 10.619 24.4448 10.619C30.0519 10.619 31.8643 15.1143 31.8643 18.8205C31.8643 19.3696 31.8643 19.8155 31.8299 20.2618H19.59V20.2614ZM28.821 18.1679C28.787 15.2856 27.3509 12.9866 24.4108 12.9866C21.3339 12.9866 20.0003 15.1143 19.6927 18.1679H28.821Z" fill="#d5dade"></path><path d="M35.7967 28.428V3.24103H38.8052V28.428H35.7967Z" fill="#d5dade"></path><path d="M44.7545 28.428V13.4671H41.9852V11.0304H44.7545V8.93725C44.7545 5.74598 45.9854 2.89789 49.8145 2.89789C50.4644 2.89789 51.319 2.96652 51.7293 3.10379V5.67735C51.319 5.5746 50.6695 5.50557 50.2248 5.50557C48.4473 5.50557 47.7634 6.6037 47.7634 9.14315V11.0304H51.2506V13.4671H47.7634V28.428H44.7545Z" fill="#d5dade"></path><path d="M54.1569 6.98136V3.24103H57.1654V6.98136H54.1569ZM54.1569 11.0303H57.1654V28.428H54.1569V11.0303Z" fill="#d5dade"></path><path d="M64.0383 20.2614C64.0722 23.7958 65.8502 26.3353 68.7907 26.3353C71.5257 26.3353 72.4151 24.894 72.9618 23.624H76.0047C75.3208 25.8548 73.4405 28.8402 68.688 28.8402C63.2516 28.8402 61.0294 24.379 61.0294 19.9182C61.0294 14.737 63.628 10.619 68.8931 10.619C74.5002 10.619 76.3126 15.1143 76.3126 18.8205C76.3126 19.3696 76.3126 19.8155 76.2782 20.2618L64.0383 20.2614ZM73.2697 18.1679C73.2357 15.2856 71.7996 12.9866 68.8591 12.9866C65.7823 12.9866 64.4486 15.1143 64.141 18.1679H73.2697Z" fill="#d5dade"></path><path d="M80.1427 35.2569V15.2857C80.1427 13.8444 80.1427 12.3685 80.1087 11.0304H83.0148C83.0832 11.614 83.1172 12.6431 83.1172 13.7753C84.0746 11.9913 85.8182 10.6186 88.7927 10.6186C92.793 10.6186 95.6991 13.9816 95.6991 19.266C95.6991 25.5117 92.3826 28.8402 88.1772 28.8402C85.3735 28.8402 83.9034 27.6735 83.1172 26.2667V35.2569H80.1427ZM88.0065 13.1922C84.4165 13.1922 82.9804 15.4571 82.9804 19.7119C82.9804 23.7955 84.143 26.3004 87.7669 26.3004C90.9466 26.3004 92.6218 23.6927 92.6218 19.4029C92.6222 15.6975 90.947 13.1922 88.0065 13.1922Z" fill="#d5dade"></path><path d="M114.744 19.6782C114.744 24.7222 111.872 28.8402 106.572 28.8402C101.615 28.8402 98.6063 24.9967 98.6063 19.7468C98.6063 14.5997 101.547 10.619 106.778 10.619C111.598 10.6186 114.744 14.222 114.744 19.6782ZM101.683 19.7119C101.683 23.555 103.598 26.3349 106.709 26.3349C109.855 26.3349 111.666 23.6927 111.666 19.7464C111.666 15.8343 109.889 13.1235 106.641 13.1235C103.393 13.1235 101.683 15.7657 101.683 19.7119Z" fill="#d5dade"></path><path d="M118.642 35.2569V15.2857C118.642 13.8444 118.642 12.3685 118.608 11.0304H121.514C121.583 11.614 121.617 12.6431 121.617 13.7753C122.574 11.9913 124.318 10.6186 127.292 10.6186C131.292 10.6186 134.198 13.9816 134.198 19.266C134.198 25.5117 130.882 28.8402 126.677 28.8402C123.873 28.8402 122.403 27.6735 121.617 26.2667V35.2569H118.642ZM126.506 13.1922C122.916 13.1922 121.48 15.4571 121.48 19.7119C121.48 23.7955 122.642 26.3004 126.266 26.3004C129.446 26.3004 131.121 23.6927 131.121 19.4029C131.122 15.6975 129.446 13.1922 126.506 13.1922Z" fill="#d5dade"></path><path d="M143 6.40946C139.146 7.81939 138 8.96341 136.591 12.8178C135.181 8.96341 134.037 7.81939 130.182 6.40946C134.037 4.99872 135.181 3.85497 136.591 0C138 3.85497 139.146 4.99872 143 6.40946Z" fill="#d5dade"></path></svg>