<?xml version="1.0" standalone="no"?>
<!DOCTYPE svg PUBLIC "-//W3C//DTD SVG 20010904//EN"
 "http://www.w3.org/TR/2001/REC-SVG-20010904/DTD/svg10.dtd">
<svg width="125" height="149" viewBox="0 0 125 149" xmlns="http://www.w3.org/2000/svg">
<g fill="currentColor">
<path d="M4.49064 148.63C2.2789 148.63 0.534591 146.714 0.974932 144.546C5.25597 123.482 25.943 107.505 50.8158 107.505C75.6905 107.505 96.3766 123.482 100.658 144.546C101.098 146.714 99.3536 148.63 97.1409 148.63C95.3173 148.63 93.7796 147.306 93.3022 145.545C88.7905 128.916 71.4807 116.532 50.8158 116.532C30.1508 116.532 12.8411 128.916 8.32934 145.545C7.85188 147.306 6.3162 148.63 4.49064 148.63Z" />
</g>
<path fill-rule="evenodd" clip-rule="evenodd" d="M51.0674 107.505C67.691 107.505 81.1681 93.8071 81.1681 76.9117C81.1681 60.0152 67.691 46.3185 51.0674 46.3185C34.4447 46.3185 20.9677 60.0152 20.9677 76.9117C20.9677 93.8071 34.4447 107.505 51.0674 107.505ZM51.0594 116.544C72.6642 116.544 90.1785 98.8023 90.1785 76.9177C90.1785 55.033 72.6642 37.291 51.0594 37.291C29.4545 37.291 11.9402 55.033 11.9402 76.9177C11.9402 98.8023 29.4545 116.544 51.0594 116.544Z" />
<path d="M124.975 24.6552C110.497 30.0617 106.196 34.448 100.9 49.2281C95.6036 34.448 91.3065 30.0617 76.8284 24.6552C91.3065 19.2457 95.6036 14.8604 100.9 0.0783463C106.194 14.8604 110.497 19.2457 124.975 24.6552Z" />
</svg>
