<svg width="39" height="31" viewBox="0 0 39 31" fill="none" xmlns="http://www.w3.org/2000/svg">
<path fill-rule="evenodd" clip-rule="evenodd" d="M38.4192 0.0355107C38.9649 -0.108804 39.0544 0.202473 38.9749 0.684398C38.9438 0.684398 38.9132 0.684398 38.8822 0.684398C37.2526 8.10394 35.2659 15.4908 33.513 22.8382C32.9337 25.2647 32.5587 27.7544 31.6612 30.0682C29.1425 29.4482 26.6302 28.6018 24.1626 27.8439C21.6814 27.0823 19.1601 26.5419 16.9417 25.4338C21.407 19.6465 26.29 14.2779 30.9212 8.65644C25.9371 12.9084 20.6301 17.9721 15.4606 22.5601C14.9033 23.0547 13.6856 24.3572 13.1458 24.4146C12.4195 24.4915 10.5402 23.6493 9.72067 23.3944C8.54351 23.0294 7.41112 22.577 6.48045 22.2826C4.10453 21.5299 1.92928 21.0427 0 20.0573C0 19.9957 0 19.934 0 19.8719C12.6354 13.0886 25.6953 6.73138 38.4192 0.0355107Z" fill="#000"/>
</svg>
