<?xml version="1.0" encoding="utf-8"?>
<!-- Generator: Adobe Illustrator 25.2.1, SVG Export Plug-In . SVG Version: 6.00 Build 0)  -->
<svg version="1.1" id="Layer_1" xmlns="http://www.w3.org/2000/svg" xmlns:xlink="http://www.w3.org/1999/xlink" x="0px" y="0px"
	 viewBox="0 0 40 40" style="enable-background:new 0 0 40 40;" xml:space="preserve">
<style type="text/css">
	.st0{fill:#FBE378;}
	.st1{fill:#57C1EE;}
	.st2{fill:#29A4DD;}
	.st3{fill:#AED06F;}
	.st4{fill:#F2746C;}
	.st5{fill:#FBB34C;}
	.st6{fill:#2667B1;}
	.st7{fill:#EC1C78;}
	.st8{fill:#FFFFFF;}
</style>
<g>
	<path class="st0" d="M34.1,5.9C30.5,2.2,25.5,0,20,0v20L34.1,5.9z"/>
	<path class="st1" d="M5.9,5.9C2.2,9.5,0,14.5,0,20h20L5.9,5.9z"/>
	<path class="st2" d="M0,20c0,5.5,2.2,10.5,5.9,14.1L20,20H0z"/>
	<path class="st3" d="M20,0C14.5,0,9.5,2.2,5.9,5.9L20,20V0z"/>
	<path class="st4" d="M34.1,34.1C37.8,30.5,40,25.5,40,20H20L34.1,34.1z"/>
	<path class="st5" d="M20,20h20c0-5.5-2.2-10.5-5.9-14.1L20,20z"/>
	<path class="st6" d="M5.9,34.1C9.5,37.8,14.5,40,20,40V20L5.9,34.1z"/>
	<path class="st7" d="M20,40c5.5,0,10.5-2.2,14.1-5.9L20,20V40z"/>
</g>
<path class="st8" d="M31.4,20c-6.9,2.5-8.9,4.6-11.4,11.4c-2.5-6.9-4.6-8.9-11.4-11.4c6.9-2.5,8.9-4.6,11.4-11.4
	C22.5,15.4,24.6,17.5,31.4,20z"/>
</svg>
