<?xml version="1.0" encoding="utf-8"?>
<!-- Generator: Adobe Illustrator 15.1.0, SVG Export Plug-In . SVG Version: 6.00 Build 0)  -->
<!DOCTYPE svg PUBLIC "-//W3C//DTD SVG 1.1//EN" "http://www.w3.org/Graphics/SVG/1.1/DTD/svg11.dtd">
<svg version="1.1" id="Layer_1" xmlns="http://www.w3.org/2000/svg" xmlns:xlink="http://www.w3.org/1999/xlink" x="0px" y="0px"
	 width="433.673px" height="106.123px" viewBox="0 0 433.673 106.123" enable-background="new 0 0 433.673 106.123"
	 xml:space="preserve">
<g>
	<g>
		<g>
			<path fill="#0B6EA2" d="M33.692,71.725c1.24,4.872,4.873,7.796,10.986,7.796c6.556,0,9.125-2.835,9.125-6.911
				c0-4.252-2.038-6.201-10.631-8.239c-12.846-3.101-15.504-7.087-15.504-13.2c0-6.291,4.695-12.581,16.213-12.581
				c11.605,0,16.39,6.733,16.921,12.935H53.36c-0.709-2.835-2.923-6.911-9.745-6.911c-6.291,0-8.24,3.013-8.24,5.937
				c0,3.367,1.861,5.05,10.1,6.999c13.644,3.277,16.39,7.796,16.39,14.44c0,7.886-6.291,13.645-17.454,13.645
				c-11.606,0-17.365-5.849-18.516-13.909H33.692z"/>
			<path fill="#0B6EA2" d="M76.662,63.485c0.088,9.125,4.695,15.682,12.314,15.682c7.087,0,9.391-3.721,10.809-7h7.885
				c-1.772,5.76-6.645,13.468-18.959,13.468c-14.086,0-19.845-11.519-19.845-23.036c0-13.376,6.733-24.008,20.376-24.008
				c14.53,0,19.226,11.606,19.226,21.174c0,1.418,0,2.569-0.089,3.721H76.662z M100.583,58.081
				c-0.088-7.441-3.81-13.377-11.429-13.377c-7.973,0-11.429,5.493-12.226,13.377H100.583z"/>
			<path fill="#0B6EA2" d="M118.657,84.571V19.542h7.796v65.028H118.657z"/>
			<path fill="#0B6EA2" d="M141.87,84.571V45.944h-7.176v-6.292h7.176v-5.404c0-8.24,3.189-15.593,13.112-15.593
				c1.684,0,3.898,0.177,4.962,0.532v6.645c-1.063-0.266-2.747-0.443-3.899-0.443c-4.606,0-6.378,2.834-6.378,9.391v4.872h9.037
				v6.292h-9.037v38.627H141.87z"/>
			<path fill="#0B6EA2" d="M166.233,29.199v-9.656h7.796v9.656H166.233z M166.233,39.652h7.796v44.918h-7.796V39.652z"/>
			<path fill="#0B6EA2" d="M191.838,63.485c0.089,9.125,4.696,15.682,12.315,15.682c7.087,0,9.391-3.721,10.808-7h7.886
				c-1.772,5.76-6.645,13.468-18.959,13.468c-14.087,0-19.845-11.519-19.845-23.036c0-13.376,6.733-24.008,20.376-24.008
				c14.53,0,19.225,11.606,19.225,21.174c0,1.418,0,2.569-0.089,3.721H191.838z M215.759,58.081
				c-0.088-7.441-3.81-13.377-11.429-13.377c-7.973,0-11.429,5.493-12.226,13.377H215.759z"/>
		</g>
	</g>
	<g>
		<g>
			<g>
				<path fill="#E51075" d="M233.57,102.202V50.639c0-3.721,0-7.531-0.089-10.987h7.531c0.176,1.507,0.265,4.164,0.265,7.088
					c2.481-4.606,6.999-8.15,14.707-8.15c10.365,0,17.896,8.683,17.896,22.327c0,16.124-8.594,24.718-19.491,24.718
					c-7.266,0-11.074-3.013-13.112-6.645v23.212H233.57z M253.947,45.234c-9.303,0-13.024,5.847-13.024,16.833
					c0,10.543,3.012,17.011,12.403,17.011c8.239,0,12.58-6.732,12.58-17.808C265.906,51.702,261.565,45.234,253.947,45.234z"/>
			</g>
			<g>
				<path fill="#E51075" d="M323.229,61.979c0,13.023-7.441,23.655-21.173,23.655c-12.848,0-20.644-9.923-20.644-23.478
					c0-13.29,7.619-23.567,21.174-23.567C315.078,38.59,323.229,47.893,323.229,61.979z M289.386,62.067
					c0,9.923,4.96,17.1,13.023,17.1c8.15,0,12.847-6.821,12.847-17.01c0-10.101-4.606-17.1-13.024-17.1
					C293.816,45.057,289.386,51.879,289.386,62.067z"/>
			</g>
			<g>
				<path fill="#E51075" d="M333.331,102.202V50.639c0-3.721,0-7.531-0.088-10.987h7.53c0.177,1.507,0.266,4.164,0.266,7.088
					c2.48-4.606,6.999-8.15,14.706-8.15c10.367,0,17.897,8.683,17.897,22.327c0,16.124-8.594,24.718-19.492,24.718
					c-7.264,0-11.074-3.013-13.111-6.645v23.212H333.331z M353.708,45.234c-9.303,0-13.022,5.847-13.022,16.833
					c0,10.543,3.012,17.011,12.402,17.011c8.239,0,12.581-6.732,12.581-17.808C365.668,51.702,361.327,45.234,353.708,45.234z"/>
			</g>
		</g>
	</g>
	<path fill="#E51075" d="M405.024,25.013c-11.589,4.239-15.032,7.681-19.272,19.269c-4.238-11.588-7.679-15.03-19.268-19.269
		c11.589-4.242,15.029-7.681,19.268-19.272C389.992,17.332,393.435,20.771,405.024,25.013"/>
</g>
<g>
	<path fill="#0B6EA2" d="M395.352,63.678c0,2.018-0.464,3.639-1.392,4.864c-0.928,1.225-2.173,1.837-3.735,1.837
		c-1.668,0-2.958-0.59-3.869-1.77l-0.11,1.525h-2.075v-18.75h2.258v6.994c0.912-1.131,2.169-1.696,3.772-1.696
		s2.862,0.606,3.778,1.819c0.915,1.213,1.373,2.873,1.373,4.98V63.678z M393.094,63.421c0-1.538-0.298-2.726-0.892-3.564
		c-0.594-0.838-1.448-1.257-2.563-1.257c-1.489,0-2.56,0.691-3.211,2.074v5.713c0.692,1.385,1.771,2.076,3.235,2.076
		c1.082,0,1.925-0.42,2.526-1.258C392.792,66.368,393.094,65.106,393.094,63.421z"/>
	<path fill="#0B6EA2" d="M403.676,70.379c-1.79,0-3.246-0.588-4.369-1.764s-1.686-2.748-1.686-4.719v-0.414
		c0-1.311,0.251-2.48,0.751-3.51c0.501-1.029,1.2-1.836,2.1-2.417c0.899-0.582,1.874-0.873,2.924-0.873
		c1.717,0,3.052,0.565,4.004,1.696c0.952,1.132,1.429,2.752,1.429,4.859v0.939h-8.948c0.032,1.303,0.413,2.354,1.142,3.155
		c0.728,0.802,1.654,1.202,2.777,1.202c0.797,0,1.473-0.162,2.025-0.488c0.554-0.324,1.038-0.756,1.453-1.293l1.379,1.074
		C407.55,69.53,405.89,70.379,403.676,70.379z M403.396,58.539c-0.911,0-1.677,0.331-2.295,0.995
		c-0.618,0.663-1.001,1.593-1.147,2.789h6.616v-0.171c-0.065-1.147-0.374-2.036-0.928-2.667S404.34,58.539,403.396,58.539z"/>
	<path fill="#0B6EA2" d="M414.504,53.729v3.198h2.467v1.745h-2.467v8.201c0,0.53,0.11,0.928,0.33,1.192s0.594,0.397,1.123,0.397
		c0.261,0,0.618-0.049,1.074-0.146v1.82c-0.594,0.161-1.172,0.242-1.733,0.242c-1.009,0-1.771-0.305-2.282-0.916
		c-0.514-0.609-0.77-1.477-0.77-2.6v-8.191h-2.404v-1.745h2.404v-3.198H414.504z"/>
	<path fill="#0B6EA2" d="M427.762,70.135c-0.13-0.26-0.236-0.725-0.317-1.392c-1.05,1.091-2.303,1.636-3.76,1.636
		c-1.302,0-2.37-0.368-3.204-1.104c-0.835-0.737-1.252-1.671-1.252-2.802c0-1.375,0.523-2.443,1.569-3.204
		c1.045-0.761,2.517-1.142,4.413-1.142h2.197V61.09c0-0.789-0.236-1.418-0.709-1.887c-0.472-0.468-1.167-0.701-2.087-0.701
		c-0.806,0-1.481,0.203-2.026,0.609c-0.545,0.408-0.818,0.9-0.818,1.478h-2.27c0-0.659,0.233-1.296,0.701-1.91
		s1.103-1.101,1.904-1.459s1.683-0.537,2.643-0.537c1.522,0,2.715,0.38,3.577,1.142c0.862,0.761,1.311,1.809,1.343,3.143v6.08
		c0,1.213,0.154,2.177,0.464,2.893v0.195H427.762z M424.014,68.415c0.709,0,1.38-0.184,2.015-0.55s1.095-0.843,1.38-1.429v-2.709
		h-1.771c-2.767,0-4.15,0.81-4.15,2.429c0,0.708,0.236,1.262,0.708,1.66C422.667,68.215,423.274,68.415,424.014,68.415z"/>
</g>
</svg>
