<svg width="80" height="80" viewBox="0 0 80 80" fill="none" xmlns="http://www.w3.org/2000/svg">
<path d="M79.2727 39.9993C79.2727 18.3084 61.6916 0.727295 40 0.727295C18.3084 0.727295 0.727264 18.3084 0.727264 39.9993C0.727264 59.6037 15.0865 75.8502 33.864 78.7957V51.3513H23.8916V39.9993H33.864V31.3469C33.864 21.5048 39.7244 16.0684 48.6996 16.0684C52.9949 16.0684 57.4873 16.8357 57.4873 16.8357V26.5004H52.5331C47.6545 26.5004 46.136 29.5302 46.136 32.6371V40H57.0284L55.2873 51.3513H46.1367V78.7949C64.9135 75.8502 79.2727 59.6037 79.2727 39.9993Z" fill="#1877F2"/>
<path d="M55.2874 51.3513L57.0292 39.9993H46.1368V32.6364C46.1368 29.5302 47.6554 26.4996 52.5339 26.4996H57.4888V16.8349C57.4888 16.8349 52.9936 16.0676 48.6983 16.0676C39.7238 16.0676 33.8641 21.5069 33.8641 31.3476V39.9993H23.8925V51.3513H33.8641V78.7963C35.8648 79.1098 37.9136 79.2727 40.0001 79.2727C42.0867 79.2727 44.1347 79.1098 46.1368 78.7971V51.3513H55.2874Z" fill="white"/>
</svg>
