<svg width="80" height="80" viewBox="0 0 80 80" fill="none" xmlns="http://www.w3.org/2000/svg">
<path d="M1 40C1 18.4609 18.4609 1 40 1C61.5391 1 79 18.4609 79 40C79 61.5391 61.5391 79 40 79C18.4609 79 1 61.5391 1 40Z" fill="white" stroke="#E0E0E0" stroke-width="2"/>
<path d="M65.0345 29.6163C64.9119 26.9354 64.4861 25.1046 63.8635 23.5029C63.2314 21.8224 62.2399 20.3002 60.9587 19.042C59.7009 17.7608 58.1783 16.7689 56.4978 16.1364C54.8957 15.5142 53.0653 15.0888 50.3844 14.967C47.6986 14.844 46.8405 14.8148 40.0008 14.8148C33.1611 14.8148 32.303 14.844 29.6172 14.9662C26.9363 15.0888 25.1059 15.5146 23.5038 16.1371C21.8233 16.7693 20.3011 17.7608 19.0429 19.042C17.7617 20.2998 16.7698 21.822 16.1373 23.5025C15.5151 25.1046 15.0897 26.9354 14.9679 29.6159C14.8449 32.3021 14.8157 33.1598 14.8157 39.9995C14.8157 46.8396 14.8449 47.6977 14.9679 50.3835C15.0901 53.064 15.5159 54.8948 16.1384 56.4969C16.7706 58.177 17.7621 59.6996 19.0433 60.9574C20.3011 62.2386 21.8237 63.2301 23.5042 63.8623C25.1059 64.4852 26.9367 64.9106 29.6176 65.0332C32.3038 65.1558 33.1615 65.1846 40.0012 65.1846C46.8409 65.1846 47.699 65.1558 50.3848 65.0332C53.0656 64.9106 54.896 64.4852 56.4982 63.8623C59.8811 62.5541 62.5554 59.8798 63.8635 56.4969C64.4865 54.8948 64.9119 53.064 65.0345 50.3835C65.1567 47.6973 65.1859 46.8396 65.1859 39.9999C65.1859 33.1598 65.1567 32.3021 65.0345 29.6163ZM60.501 50.1772C60.3891 52.6328 59.9787 53.9663 59.634 54.8536C58.7866 57.0503 57.0508 58.7861 54.8541 59.6335C53.9668 59.9782 52.6333 60.3886 50.1777 60.5005C47.5226 60.6219 46.7259 60.6473 40.0008 60.6473C33.2753 60.6473 32.479 60.6219 29.8235 60.5005C27.3683 60.3886 26.0348 59.9782 25.1471 59.6335C24.0534 59.2296 23.0638 58.5859 22.2514 57.7493C21.4148 56.9369 20.7711 55.9477 20.3672 54.8536C20.0225 53.9663 19.6121 52.6328 19.5002 50.1772C19.3792 47.5217 19.3534 46.725 19.3534 40.0003C19.3534 33.2751 19.3792 32.4789 19.5002 29.823C19.6125 27.3674 20.0225 26.0339 20.3672 25.1465C20.7711 24.0525 21.4152 23.0629 22.2514 22.2505C23.0638 21.4139 24.0534 20.7702 25.1475 20.3667C26.0348 20.0216 27.3683 19.6115 29.8239 19.4993C32.4794 19.3783 33.276 19.3525 40.0008 19.3525C46.7256 19.3525 47.5218 19.3783 50.1777 19.4997C52.6333 19.6115 53.9664 20.022 54.8541 20.3667C55.9479 20.7706 56.9374 21.4143 57.7498 22.2505C58.5864 23.0629 59.2301 24.0525 59.6336 25.1465C59.9787 26.0339 60.3891 27.3674 60.501 29.823C60.622 32.4785 60.6478 33.2751 60.6478 39.9999C60.6478 46.725 60.6224 47.5213 60.501 50.1772Z" fill="url(#paint0_linear)"/>
<path d="M39.9992 27.0668C32.8567 27.0668 27.0666 32.8574 27.0666 39.9999C27.0666 47.1423 32.8567 52.9325 39.9992 52.9325C47.1421 52.9325 52.9323 47.1423 52.9323 39.9999C52.9323 32.8574 47.1421 27.0668 39.9992 27.0668ZM39.9992 48.3948C35.3631 48.3944 31.6043 44.636 31.6047 39.9995C31.6047 35.3634 35.3631 31.6046 39.9996 31.6046C44.6361 31.605 48.3945 35.3634 48.3945 39.9995C48.3945 44.636 44.6357 48.3948 39.9992 48.3948Z" fill="url(#paint1_linear)"/>
<path d="M56.4655 26.5562C56.4655 28.2252 55.1124 29.5783 53.4434 29.5783C51.774 29.5783 50.4209 28.2252 50.4209 26.5562C50.4209 24.8868 51.774 23.5337 53.4434 23.5337C55.1124 23.5337 56.4655 24.8868 56.4655 26.5562Z" fill="url(#paint2_linear)"/>
<defs>
<linearGradient id="paint0_linear" x1="19.0427" y1="60.9576" x2="60.9589" y2="19.0414" gradientUnits="userSpaceOnUse">
<stop stop-color="#FFD600"/>
<stop offset="0.5" stop-color="#FF0100"/>
<stop offset="1" stop-color="#D800B9"/>
</linearGradient>
<linearGradient id="paint1_linear" x1="30.8546" y1="49.1446" x2="49.1444" y2="30.8548" gradientUnits="userSpaceOnUse">
<stop stop-color="#FF6400"/>
<stop offset="0.5" stop-color="#FF0100"/>
<stop offset="1" stop-color="#FD0056"/>
</linearGradient>
<linearGradient id="paint2_linear" x1="51.3063" y1="28.693" x2="55.5803" y2="24.419" gradientUnits="userSpaceOnUse">
<stop stop-color="#F30072"/>
<stop offset="1" stop-color="#E50097"/>
</linearGradient>
</defs>
</svg>
