<svg width="80" height="80" viewBox="0 0 80 80" fill="none" xmlns="http://www.w3.org/2000/svg">
<circle cx="40" cy="40" r="39" fill="white" stroke="#00AFF0" stroke-width="2"/>
<path d="M57.0764 37.2044V33.9001C57.0745 31.9384 56.6657 29.997 55.874 28.1905C55.0823 26.384 53.9238 24.7491 52.467 23.3824C49.5223 20.5703 45.5472 18.9953 41.4064 19H38.5936C34.456 18.9976 30.4845 20.5725 27.542 23.3824C26.0848 24.7484 24.9267 26.3833 24.1364 28.1901C23.3461 29.9969 22.9399 31.9387 22.9417 33.9001V37.2044L21 40.5876V45.4609C21.0035 47.6395 21.458 49.7955 22.3368 51.802C23.2157 53.8084 24.5011 55.6248 26.1175 57.1443C29.4094 60.2625 33.8379 62.0064 38.4484 62H41.5788C46.1775 62.001 50.5927 60.2572 53.8734 57.1443C55.4927 55.6265 56.7806 53.8106 57.6611 51.8039C58.5416 49.7972 58.9969 47.6404 59 45.4609V40.5876L57.0764 37.2044ZM41.8329 52.1571V56.0575C41.835 56.3435 41.7621 56.6253 41.6209 56.8767C41.4796 57.1281 41.2747 57.3408 41.0253 57.4949H40.2631C40.1729 57.5081 40.0811 57.5081 39.9909 57.4949H39.8095C39.7341 57.5026 39.658 57.5026 39.5826 57.4949H39.2378C38.9835 57.3373 38.774 57.1209 38.6283 56.8653C38.4825 56.6097 38.4051 56.323 38.4031 56.0312V52.1571C37.3514 51.7627 36.4768 51.0236 35.9322 50.0692C35.3876 49.1149 35.2077 48.0059 35.4239 46.9363C35.6402 45.8668 36.2388 44.9047 37.1152 44.2184C37.9915 43.5321 39.0897 43.1652 40.2178 43.182H40.3176C41.4456 43.1652 42.5438 43.5321 43.4202 44.2184C44.2965 44.9047 44.8952 45.8668 45.1114 46.9363C45.3277 48.0059 45.1478 49.1149 44.6032 50.0692C44.0586 51.0236 43.184 51.7627 42.1323 52.1571H41.8329ZM50.0807 37.3096H29.9284V33.9001C29.9306 32.8162 30.1573 31.7437 30.5952 30.7457C31.0331 29.7477 31.6733 28.8444 32.478 28.0891C34.1052 26.53 36.3018 25.6517 38.5936 25.6437H41.4064C43.6984 25.6507 45.8954 26.5292 47.522 28.0891C48.3251 28.8456 48.9642 29.7491 49.402 30.7468C49.8397 31.7446 50.0674 32.8165 50.0716 33.9001L50.0807 37.3096Z" fill="#00AFF0"/>
</svg>
