<?xml version="1.0" encoding="utf-8"?>
<!-- Generator: Adobe Illustrator 15.1.0, SVG Export Plug-In . SVG Version: 6.00 Build 0)  -->
<!DOCTYPE svg PUBLIC "-//W3C//DTD SVG 1.1//EN" "http://www.w3.org/Graphics/SVG/1.1/DTD/svg11.dtd">
<svg version="1.1" id="Layer_1" xmlns="http://www.w3.org/2000/svg" xmlns:xlink="http://www.w3.org/1999/xlink" x="0px" y="0px"
	 width="60px" height="60px" viewBox="0 0 60 60" enable-background="new 0 0 60 60" xml:space="preserve">
<path fill="#E51075" d="M53.447,45.063c3.178-4.483,5.053-9.914,5.053-15.774C58.5,13.938,45.736,1.5,30,1.5
	C14.26,1.5,1.5,13.939,1.5,29.289c0,15.34,12.76,27.789,28.5,27.789c4.464,0,8.671-1.029,12.434-2.814
	c-0.031,0.016-0.059,0.034-0.091,0.049c0.181-0.025,0.339-0.07,0.521-0.078c2.205-0.059,4.841,1.207,6.938,1.922
	c2.402,0.816,4.55,1.634,6.519,2.345c0.039-0.004,0.098-0.004,0.138-0.004c-0.466-2.158-1.099-4.196-1.67-6.271
	c-0.575-2.093-1.699-4.338-1.53-6.41C53.279,45.559,53.355,45.313,53.447,45.063z M32.04,44.952c-0.55,0.542-1.313,0.817-2.32,0.817
	c-1.002,0-1.767-0.275-2.309-0.817c-0.539-0.544-0.808-1.228-0.808-2.027c0-0.868,0.284-1.573,0.844-2.108
	c0.56-0.535,1.318-0.803,2.273-0.803c0.969,0,1.74,0.278,2.299,0.832c0.56,0.549,0.844,1.246,0.844,2.084
	C32.861,43.729,32.589,44.404,32.04,44.952z M36.5,28.514l-2.798,2.681c-1.002,1.104-1.519,2.729-1.544,4.856h-5.167
	c0-1.972,0.251-3.53,0.754-4.698c0.499-1.173,1.49-2.45,2.97-3.848c1.479-1.396,2.411-2.391,2.807-2.979
	c0.608-0.902,0.91-1.874,0.91-2.918c0-1.382-0.349-2.444-1.054-3.17c-0.708-0.727-1.744-1.095-3.108-1.095
	c-1.304,0-2.354,0.356-3.15,1.072c-0.799,0.709-1.197,1.677-1.197,2.903h-5.529c0.036-2.617,0.946-4.684,2.744-6.208
	c1.801-1.52,4.177-2.283,7.132-2.283c3.053,0,5.434,0.754,7.141,2.26c1.71,1.505,2.556,3.613,2.556,6.316
	C39.962,23.809,38.813,26.179,36.5,28.514z"/>
</svg>
