<?xml version="1.0" encoding="utf-8"?>
<!-- Generator: Adobe Illustrator 15.1.0, SVG Export Plug-In . SVG Version: 6.00 Build 0)  -->
<!DOCTYPE svg PUBLIC "-//W3C//DTD SVG 1.1//EN" "http://www.w3.org/Graphics/SVG/1.1/DTD/svg11.dtd">
<svg version="1.1" id="Layer_1" xmlns="http://www.w3.org/2000/svg" xmlns:xlink="http://www.w3.org/1999/xlink" x="0px" y="0px"
	 width="60px" height="60px" viewBox="0 0 60 60" enable-background="new 0 0 60 60" xml:space="preserve">
<path fill="#E51075" d="M57.104,14.649c0-5.082-4.06-9.211-9.033-9.211H11.93c-4.982,0-9.034,4.129-9.034,9.211v21.492
	c0,5.08,4.052,9.211,9.036,9.211h9.033v6.14c0,1.161,0.646,2.225,1.661,2.75c0.43,0.215,0.888,0.321,1.35,0.321
	c0.639,0,1.277-0.203,1.804-0.621l11.246-8.59H48.07c4.98,0,9.033-4.129,9.033-9.211h-0.002V14.649H57.104z M33.018,15.673
	c0-1.696,1.344-3.073,3.006-3.073s3.015,1.373,3.015,3.073v3.072c0,1.694-1.353,3.07-3.015,3.07s-3.008-1.376-3.006-3.07V15.673z
	 M20.967,15.673c0-1.696,1.348-3.073,3.013-3.073c1.662,0,3.011,1.373,3.011,3.073v3.072c0,1.694-1.347,3.07-3.011,3.07
	c-1.665,0-3.013-1.376-3.013-3.07V15.673z M40.863,33.395c-3.211,2.511-6.967,3.838-10.865,3.838c-3.901,0-7.656-1.33-10.869-3.838
	c-1.316-1.03-1.569-2.955-0.561-4.298c1.018-1.347,2.904-1.616,4.225-0.571c4.299,3.358,10.107,3.358,14.402,0
	c1.328-1.042,3.217-0.771,4.229,0.571C42.436,30.439,42.188,32.363,40.863,33.395z"/>
</svg>
