<?xml version="1.0" encoding="utf-8"?>
<!-- Generator: Adobe Illustrator 15.1.0, SVG Export Plug-In . SVG Version: 6.00 Build 0)  -->
<!DOCTYPE svg PUBLIC "-//W3C//DTD SVG 1.1//EN" "http://www.w3.org/Graphics/SVG/1.1/DTD/svg11.dtd">
<svg version="1.1" id="Layer_1" xmlns="http://www.w3.org/2000/svg" xmlns:xlink="http://www.w3.org/1999/xlink" x="0px" y="0px"
	 width="60px" height="60px" viewBox="0 0 60 60" enable-background="new 0 0 60 60" xml:space="preserve">
<g>
	<path fill="#E51075" d="M38.818,12.661c-0.996-2.464-2.729-8.772-5.223-8.729c-2.693,0.049-1.832,2.534-2.611,4.483
		c-1.893,4.749-7.797,9.999-11.872,12.978c-2.2,1.604-4.877,3.229-7.596,4.717c-4.651,2.543-8.01,3.257-9.497,8.967
		c0,0.942,0,1.886,0,2.828c0.928,5.487,6.721,8.696,12.818,6.844c1.713,1.385,3.532,3.574,5.461,5.663
		c1.785,1.931,3.621,5.083,5.697,5.423c2.013,0.333,6.552-1.179,7.122-2.831C33.7,51.32,31.01,48.4,30.031,46.87
		c-1.479-2.317-2.646-3.699-3.56-5.897c5.507-0.885,12.041-2.845,17.568-0.707c1.667,0.646,1.71,2.156,3.563,1.889
		c3.722-0.543-0.057-7.164-0.947-9.439C43.813,25.475,41.927,20.349,38.818,12.661z"/>
	<path fill="#E51075" d="M44.754,11.719c-0.557,1.017-0.87,2.285-1.427,3.303c3.907,1.57,6.532,6.47,4.749,11.559
		c1.113,0.47,2.313,0.849,3.32,1.417C54.203,20.812,50.296,13.593,44.754,11.719z"/>
	<path fill="#E51075" d="M47.605,5.585c-0.963,0.696-0.979,2.331-1.66,3.303c6.355,2.739,11.59,11.223,8.064,20.054
		c0.956,0.624,2.088,1.072,3.325,1.416c0.874-1.386,1.267-3.323,1.663-5.191c0.152-1.274,0.127-2.322,0-3.54
		C57.982,13.514,53.568,8.781,47.605,5.585z"/>
</g>
</svg>
