<?xml version="1.0" encoding="utf-8"?>
<!-- Generator: Adobe Illustrator 15.1.0, SVG Export Plug-In . SVG Version: 6.00 Build 0)  -->
<!DOCTYPE svg PUBLIC "-//W3C//DTD SVG 1.1//EN" "http://www.w3.org/Graphics/SVG/1.1/DTD/svg11.dtd">
<svg version="1.1" id="Layer_1" xmlns="http://www.w3.org/2000/svg" xmlns:xlink="http://www.w3.org/1999/xlink" x="0px" y="0px"
	 width="374px" height="91.334px" viewBox="0 0 374 91.334" enable-background="new 0 0 374 91.334" xml:space="preserve">
<path fill="#FFFFFF" d="M10.644,61.84c1.197,4.702,4.702,7.522,10.602,7.522c6.327,0,8.806-2.735,8.806-6.668
	c0-4.104-1.966-5.984-10.259-7.951C7.396,51.751,4.831,47.903,4.831,42.005c0-6.07,4.531-12.141,15.646-12.141
	c11.2,0,15.816,6.498,16.33,12.482h-7.182c-0.684-2.735-2.821-6.669-9.404-6.669c-6.07,0-7.951,2.907-7.951,5.729
	c0,3.249,1.795,4.872,9.747,6.754c13.166,3.163,15.816,7.522,15.816,13.937c0,7.608-6.07,13.166-16.843,13.166
	c-11.2,0-16.757-5.644-17.868-13.423H10.644z"/>
<path fill="#FFFFFF" d="M52.11,53.89c0.085,8.805,4.531,15.133,11.884,15.133c6.839,0,9.063-3.592,10.43-6.756h7.609
	c-1.71,5.559-6.412,12.996-18.296,12.996c-13.594,0-19.151-11.115-19.151-22.229c0-12.909,6.498-23.169,19.664-23.169
	c14.021,0,18.553,11.2,18.553,20.434c0,1.368,0,2.479-0.086,3.591H52.11L52.11,53.89z M75.194,48.673
	c-0.085-7.181-3.676-12.909-11.029-12.909c-7.694,0-11.029,5.301-11.798,12.909H75.194z"/>
<path fill="#FFFFFF" d="M92.636,74.235V11.483h7.523v62.752H92.636z"/>
<path fill="#FFFFFF" d="M115.036,74.235V36.961h-6.924V30.89h6.924v-5.215c0-7.951,3.078-15.047,12.654-15.047
	c1.624,0,3.762,0.171,4.787,0.513v6.412c-1.025-0.256-2.65-0.428-3.762-0.428c-4.445,0-6.155,2.736-6.155,9.063v4.702h8.72v6.071
	h-8.72v37.274H115.036z"/>
<path fill="#FFFFFF" d="M138.548,20.802v-9.319h7.523v9.319H138.548z M138.548,30.89h7.523v43.345h-7.523V30.89z"/>
<path fill="#FFFFFF" d="M163.257,53.89c0.086,8.805,4.531,15.133,11.884,15.133c6.839,0,9.063-3.592,10.431-6.756h7.61
	c-1.711,5.559-6.413,12.996-18.298,12.996c-13.594,0-19.15-11.115-19.15-22.229c0-12.909,6.498-23.169,19.664-23.169
	c14.021,0,18.553,11.2,18.553,20.434c0,1.368,0,2.479-0.086,3.591H163.257L163.257,53.89z M186.341,48.673
	c-0.086-7.181-3.677-12.909-11.029-12.909c-7.694,0-11.029,5.301-11.799,12.909H186.341z"/>
<path fill="#E51075" d="M203.527,91.25V41.492c0-3.591,0-7.268-0.086-10.602h7.269c0.17,1.454,0.256,4.018,0.256,6.839
	c2.396-4.445,6.755-7.865,14.191-7.865c10.004,0,17.271,8.379,17.271,21.545c0,15.561-8.293,23.854-18.811,23.854
	c-7.01,0-10.686-2.906-12.652-6.412V91.25H203.527z M223.191,36.276c-8.979,0-12.567,5.643-12.567,16.245
	c0,10.174,2.905,16.414,11.969,16.414c7.951,0,12.142-6.496,12.142-17.185C234.732,42.518,230.544,36.276,223.191,36.276z"/>
<path fill="#E51075" d="M290.05,52.437c0,12.566-7.182,22.826-20.432,22.826c-12.398,0-19.923-9.576-19.923-22.656
	c0-12.823,7.354-22.741,20.435-22.741C282.186,29.864,290.05,38.842,290.05,52.437z M257.393,52.521
	c0,9.576,4.787,16.502,12.567,16.502c7.865,0,12.396-6.584,12.396-16.416c0-9.747-4.444-16.5-12.567-16.5
	C261.667,36.105,257.393,42.688,257.393,52.521z"/>
<path fill="#E51075" d="M299.798,91.25V41.492c0-3.591,0-7.268-0.084-10.602h7.267c0.172,1.454,0.258,4.018,0.258,6.839
	c2.393-4.445,6.754-7.865,14.19-7.865c10.004,0,17.271,8.379,17.271,21.545c0,15.561-8.293,23.854-18.81,23.854
	c-7.01,0-10.688-2.906-12.651-6.412V91.25H299.798z M319.462,36.276c-8.977,0-12.565,5.643-12.565,16.245
	c0,10.174,2.905,16.414,11.969,16.414c7.951,0,12.141-6.496,12.141-17.185C331.005,42.518,326.815,36.276,319.462,36.276z"/>
<path fill="#FFFFFF" d="M367.179,22.304c-10.223,3.74-13.262,6.775-17,16.999c-3.739-10.224-6.774-13.259-17-16.999
	c10.226-3.742,13.261-6.776,17-17.001C353.917,15.527,356.956,18.562,367.179,22.304"/>
</svg>
