<svg width="139" height="32" viewBox="0 0 139 32" fill="none" xmlns="http://www.w3.org/2000/svg">
<path d="M0.291992 0.0110474V6.76122H7.6934V30.4152H15.4106V6.92329H21.3544L23.9295 0.0110474H0.291992Z" fill="black"/>
<path d="M61.3901 0.0110474V6.76122H68.7834V30.4152H76.5006V6.92329H82.4525L85.0195 0.0110474H61.3901Z" fill="black"/>
<path d="M32.2865 10.1404H24.5693V30.4152H32.2865V10.1404Z" fill="black"/>
<path d="M28.432 7.72553C30.5608 7.72553 32.2865 5.99858 32.2865 3.86829C32.2865 1.73799 30.5608 0.0110474 28.432 0.0110474C26.3031 0.0110474 24.5774 1.73799 24.5774 3.86829C24.5774 5.99858 26.3031 7.72553 28.432 7.72553Z" fill="black"/>
<path d="M34.6996 0.0110474V30.4152C34.6996 30.4152 42.1739 30.1721 42.4169 30.4152C42.6598 30.6583 42.4169 23.0167 42.4169 23.0167L44.992 20.926L51.4217 30.4233H59.6248L49.3324 15.9343L58.6611 7.72553H49.4944L42.7408 14.3217V0.0110474H34.6996Z" fill="black"/>
<path d="M113.475 0.0110474V30.4152C113.475 30.4152 120.95 30.1721 121.193 30.4152C121.435 30.6583 121.193 23.0167 121.193 23.0167L123.768 20.926L130.197 30.4233H138.4L128.108 15.9343L137.437 7.72553H128.27L121.516 14.3217V0.0110474H113.475Z" fill="black"/>
<path d="M83.732 18.1061C83.732 11.2505 89.0523 5.64295 95.7897 5.18915C95.4982 5.17295 95.2066 5.15674 94.907 5.15674C87.7566 5.15674 81.9667 10.9588 81.9667 18.1061C81.9667 25.2533 87.7647 31.0554 94.907 31.0554C95.2066 31.0554 95.4982 31.0392 95.7897 31.0229C89.0604 30.5692 83.732 24.9616 83.732 18.1061Z" fill="#36B2BD"/>
<path d="M97.968 5.15674C97.7493 5.15674 97.5388 5.16484 97.3283 5.17295C104.179 5.50519 109.629 11.1695 109.629 18.1061C109.629 25.0426 104.171 30.7069 97.3202 31.0392C97.5307 31.0473 97.7494 31.0554 97.9599 31.0554C105.11 31.0554 110.9 25.2533 110.9 18.1061C110.9 10.9588 105.11 5.15674 97.968 5.15674Z" fill="#DF3154"/>
<path d="M97.3202 5.17295C97.1096 5.16484 96.891 5.15674 96.6804 5.15674C96.3808 5.15674 96.0893 5.17295 95.7978 5.18915C89.0604 5.64295 83.7401 11.2505 83.7401 18.1061C83.7401 24.9616 89.0604 30.5692 95.7978 31.0229C96.0893 31.0392 96.3808 31.0554 96.6804 31.0554C96.8991 31.0554 97.1096 31.0473 97.3202 31.0392C104.171 30.7069 109.621 25.0426 109.621 18.1061C109.621 11.1695 104.171 5.50519 97.3202 5.17295ZM90.9796 18.1061C90.9796 15.2617 93.0688 12.9036 95.7897 12.4823C96.0812 12.4336 96.3727 12.4093 96.6723 12.4093C96.891 12.4093 97.1015 12.4255 97.3121 12.4498C100.154 12.7659 102.365 15.1807 102.365 18.1142C102.365 21.0476 100.154 23.4543 97.3121 23.7785C97.1015 23.8028 96.8829 23.819 96.6723 23.819C96.3727 23.819 96.0731 23.7866 95.7897 23.746C93.0688 23.3085 90.9796 20.9504 90.9796 18.1061Z" fill="black"/>
</svg>
