<svg width="80" height="80" viewBox="0 0 80 80" fill="none" xmlns="http://www.w3.org/2000/svg">
<path d="M40 78.9091C61.4889 78.9091 78.9091 61.4889 78.9091 40C78.9091 18.5111 61.4889 1.09091 40 1.09091C18.5111 1.09091 1.09091 18.5111 1.09091 40C1.09091 61.4889 18.5111 78.9091 40 78.9091Z" fill="#55ACEE"/>
<path d="M40.7324 31.4145L40.8393 33.2705L39.0313 33.0436C32.448 32.1724 26.6975 29.2175 21.8146 24.256L19.4276 21.7942L18.8124 23.6124C17.5091 27.6647 18.3426 31.9447 21.0553 34.824C22.5004 36.4131 22.176 36.6415 19.68 35.6945C18.8124 35.3905 18.0524 35.1636 17.9789 35.2778C17.7266 35.5425 18.5942 38.9891 19.2822 40.3542C20.2226 42.2473 22.1396 44.1025 24.2371 45.2007L26.0102 46.0727L23.9106 46.1113C21.8858 46.1113 21.8138 46.1484 22.0306 46.9447C22.7542 49.4073 25.6116 52.0204 28.7949 53.1549L31.0378 53.9513L29.0829 55.1629C26.1898 56.9069 22.7898 57.8902 19.3898 57.9665C17.7622 58.0036 16.4233 58.1571 16.4233 58.2691C16.4233 58.648 20.8378 60.7695 23.4058 61.6015C31.1091 64.0655 40.2618 63.0036 47.1331 58.7985C52.0153 55.8058 56.9004 49.8596 59.1789 44.1025C60.408 41.0349 61.6393 35.4298 61.6393 32.7389C61.6393 30.9971 61.7462 30.7702 63.7709 28.6873C64.9665 27.4749 66.0873 26.1491 66.304 25.7702C66.6655 25.0509 66.6306 25.0509 64.7855 25.6945C61.7106 26.8313 61.2778 26.6793 62.7949 24.9753C63.9171 23.7636 65.2553 21.5658 65.2553 20.9222C65.2553 20.808 64.7142 20.9971 64.1004 21.3396C63.4473 21.7185 61.9986 22.2851 60.9149 22.6262L58.9622 23.2698L57.1891 22.0204C56.2116 21.3396 54.8371 20.5811 54.1149 20.3535C52.2698 19.8233 49.448 19.8996 47.784 20.5055C43.2626 22.2109 40.408 26.6036 40.7324 31.4145Z" fill="white"/>
</svg>
