<?xml version="1.0" encoding="utf-8"?>
<!-- Generator: Adobe Illustrator 15.1.0, SVG Export Plug-In . SVG Version: 6.00 Build 0)  -->
<!DOCTYPE svg PUBLIC "-//W3C//DTD SVG 1.1//EN" "http://www.w3.org/Graphics/SVG/1.1/DTD/svg11.dtd">
<svg version="1.1" id="Layer_1" xmlns="http://www.w3.org/2000/svg" xmlns:xlink="http://www.w3.org/1999/xlink" x="0px" y="0px"
	 width="60px" height="60px" viewBox="0 0 60 60" enable-background="new 0 0 60 60" xml:space="preserve">
<path fill="#E51075" d="M56.262,3.5H4.735C3.985,3.508,3.27,3.811,2.737,4.348c-0.533,0.537-0.831,1.263-0.835,2.02v46.266
	c0,0.759,0.298,1.487,0.831,2.025c0.53,0.536,1.253,0.841,2.004,0.841h51.529c0.752-0.007,1.467-0.313,2-0.845
	c0.529-0.542,0.83-1.265,0.834-2.021V6.368C59.1,4.786,57.83,3.5,56.262,3.5z M13.339,49.723H7.62v-5.775h5.719V49.723z
	 M13.339,38.166H7.62v-5.779h5.719V38.166z M13.339,26.61H7.62v-5.775h5.719V26.61z M13.339,15.054H7.62V9.278h5.719V15.054z
	 M41.939,49.723H19.06V9.278h22.879V49.723z M53.38,49.723h-5.72v-5.775h5.72V49.723z M53.38,38.166h-5.72v-5.779h5.72V38.166z
	 M53.38,26.61h-5.72v-5.775h5.72V26.61z M53.38,15.054h-5.72V9.278h5.72V15.054z"/>
</svg>
