<svg width="80" height="80" viewBox="0 0 80 80" fill="none" xmlns="http://www.w3.org/2000/svg">
<path d="M40 79.2727C61.6897 79.2727 79.2727 61.6897 79.2727 40C79.2727 18.3103 61.6897 0.727272 40 0.727272C18.3103 0.727272 0.727264 18.3103 0.727264 40C0.727264 61.6897 18.3103 79.2727 40 79.2727Z" fill="#FF0000"/>
<path d="M63.1921 28.0356C62.6372 25.8975 60.995 24.2109 58.9143 23.64C55.1368 22.6022 40.0001 22.6022 40.0001 22.6022C40.0001 22.6022 24.8626 22.6022 21.0866 23.64C19.0052 24.2109 17.363 25.8975 16.8066 28.0356C15.7957 31.9113 15.7957 40 15.7957 40C15.7957 40 15.7957 48.0858 16.8066 51.9644C17.363 54.1033 19.0044 55.7855 21.0866 56.3578C24.8626 57.3978 40.0001 57.3978 40.0001 57.3978C40.0001 57.3978 55.1375 57.3978 58.9143 56.3578C60.9943 55.7855 62.6372 54.1033 63.1921 51.9644C64.2044 48.0858 64.2044 40 64.2044 40C64.2044 40 64.2044 31.9113 63.1921 28.0356Z" fill="white"/>
<path d="M35.4619 48.3185V33.1913L47.5644 40.7556L35.4619 48.3185Z" fill="#FF0000"/>
</svg>
