<svg width="145" height="226" viewBox="0 0 145 226" fill="none" xmlns="http://www.w3.org/2000/svg">
<path fill-rule="evenodd" clip-rule="evenodd" d="M3.70328 225.545L4.08633 224.621C4.67448 224.865 5.3202 225 6 225H7.95586V226H6C5.18645 226 4.41072 225.838 3.70328 225.545ZM137.044 226V225H139C139.68 225 140.326 224.865 140.914 224.621L141.297 225.545C140.589 225.838 139.814 226 139 226H137.044ZM145 7.98148H144V6C144 5.3202 143.865 4.67448 143.621 4.08633L144.545 3.70327C144.838 4.41072 145 5.18645 145 6V7.98148ZM7.95588 0H6C5.18645 0 4.41072 0.161917 3.70327 0.455284L4.08633 1.37901C4.67448 1.13511 5.3202 1 6 1H7.95588V0ZM0 218.019H1V220C1 220.68 1.13511 221.326 1.37901 221.914L0.455282 222.297C0.161917 221.589 0 220.814 0 220V218.019ZM0 214.056H1V210.093H0V214.056ZM0 206.13H1V202.167H0V206.13ZM0 198.204H1V194.241H0V198.204ZM0 190.278H1V186.315H0V190.278ZM0 182.352H1V178.389H0V182.352ZM0 174.426H1V170.463H0V174.426ZM0 166.5H1V162.537H0V166.5ZM0 158.574H1V154.611H0V158.574ZM0 150.648H1V146.685H0V150.648ZM0 142.722H1V138.759H0V142.722ZM0 134.796H1V130.833H0V134.796ZM0 126.87H1V122.907H0V126.87ZM0 118.944H1V114.982H0V118.944ZM0 111.019H1V107.056H0V111.019ZM0 103.093H1V99.1297H0V103.093ZM0 95.1667H1V91.2038H0V95.1667ZM0 87.2408H1V83.2778H0V87.2408ZM0 79.3149H1V75.3519H0V79.3149ZM0 71.3889H1V67.426H0V71.3889ZM0 63.463H1V59.5H0V63.463ZM0 55.5371H1V51.5741H0V55.5371ZM0 47.6111H1V43.6482H0V47.6111ZM0 39.6852H1V35.7222H0V39.6852ZM0 31.7593H1V27.7963H0V31.7593ZM0 23.8333H1V19.8704H0V23.8333ZM0 15.9074H1V11.9444H0V15.9074ZM0 7.98146H1V6C1 5.3202 1.13511 4.67448 1.37901 4.08633L0.455283 3.70327C0.161917 4.41072 0 5.18645 0 6V7.98146ZM11.8676 0V1H15.7794V0H11.8676ZM19.6912 0V1H23.6029V0H19.6912ZM27.5147 0V1H31.4265V0H27.5147ZM35.3382 0V1H39.25V0H35.3382ZM43.1618 0V1H47.0735V0H43.1618ZM50.9853 0V1H54.8971V0H50.9853ZM58.8088 0V1H62.7206V0H58.8088ZM66.6324 0V1H70.5441V0H66.6324ZM74.4559 0V1H78.3677V0H74.4559ZM82.2794 0V1H86.1912V0H82.2794ZM90.103 0V1H94.0147V0H90.103ZM97.9265 0V1H101.838V0H97.9265ZM105.75 0V1H109.662V0H105.75ZM113.574 0V1H117.485V0H113.574ZM121.397 0V1H125.309V0H121.397ZM129.221 0V1H133.132V0H129.221ZM137.044 0V1H139C139.68 1 140.326 1.13511 140.914 1.37901L141.297 0.455282C140.589 0.161916 139.814 0 139 0H137.044ZM145 11.9444H144V15.9074H145V11.9444ZM145 19.8704H144V23.8333H145V19.8704ZM145 27.7963H144V31.7593H145V27.7963ZM145 35.7222H144V39.6852H145V35.7222ZM145 43.6481H144V47.6111H145V43.6481ZM145 51.5741H144V55.537H145V51.5741ZM145 59.5H144V63.463H145V59.5ZM145 67.4259H144V71.3889H145V67.4259ZM145 75.3518H144V79.3148H145V75.3518ZM145 83.2778H144V87.2407H145V83.2778ZM145 91.2037H144V95.1666H145V91.2037ZM145 99.1296H144V103.093H145V99.1296ZM145 107.056H144V111.018H145V107.056ZM145 114.981H144V118.944H145V114.981ZM145 122.907H144V126.87H145V122.907ZM145 130.833H144V134.796H145V130.833ZM145 138.759H144V142.722H145V138.759ZM145 146.685H144V150.648H145V146.685ZM145 154.611H144V158.574H145V154.611ZM145 162.537H144V166.5H145V162.537ZM145 170.463H144V174.426H145V170.463ZM145 178.389H144V182.352H145V178.389ZM145 186.315H144V190.278H145V186.315ZM145 194.241H144V198.204H145V194.241ZM145 202.167H144V206.13H145V202.167ZM145 210.093H144V214.056H145V210.093ZM145 218.019H144V220C144 220.68 143.865 221.326 143.621 221.914L144.545 222.297C144.838 221.589 145 220.814 145 220V218.019ZM133.132 226V225H129.221V226H133.132ZM125.309 226V225H121.397V226H125.309ZM117.485 226V225H113.574V226H117.485ZM109.662 226V225H105.75V226H109.662ZM101.838 226V225H97.9265V226H101.838ZM94.0147 226V225H90.1029V226H94.0147ZM86.1912 226V225H82.2794V226H86.1912ZM78.3676 226V225H74.4559V226H78.3676ZM70.5441 226V225H66.6323V226H70.5441ZM62.7206 226V225H58.8088V226H62.7206ZM54.8971 226V225H50.9853V226H54.8971ZM47.0735 226V225H43.1618V226H47.0735ZM39.25 226V225H35.3382V226H39.25ZM31.4265 226V225H27.5147V226H31.4265ZM23.6029 226V225H19.6912V226H23.6029ZM15.7794 226V225H11.8676V226H15.7794Z" fill="#D5DADE"/>
</svg>
