<svg width="295" height="60" viewBox="0 0 295 60" fill="none" xmlns="http://www.w3.org/2000/svg">
<path d="M3 3H11.968L23.9253 29.9039M23.9253 29.9039H47.8399L59.7972 8.97865M23.9253 29.9039L16.452 41.8612H53.8185" stroke="#FA5853" stroke-width="6" stroke-linecap="round" stroke-linejoin="round"/>
<path d="M17.9464 56.8078C19.5974 56.8078 20.9357 55.4694 20.9357 53.8184C20.9357 52.1675 19.5974 50.8291 17.9464 50.8291C16.2954 50.8291 14.9571 52.1675 14.9571 53.8184C14.9571 55.4694 16.2954 56.8078 17.9464 56.8078Z" stroke="#FA5853" stroke-width="6" stroke-linecap="round" stroke-linejoin="round"/>
<path d="M50.8293 56.8078C52.4803 56.8078 53.8186 55.4694 53.8186 53.8184C53.8186 52.1675 52.4803 50.8291 50.8293 50.8291C49.1783 50.8291 47.84 52.1675 47.84 53.8184C47.84 55.4694 49.1783 56.8078 50.8293 56.8078Z" stroke="#FA5853" stroke-width="6" stroke-linecap="round" stroke-linejoin="round"/>
<path d="M78.14 53V10.4172H95.1731C98.2091 10.4172 100.664 11.0283 102.536 12.2506C104.409 13.4532 105.779 14.9712 106.647 16.8046C107.514 18.638 107.948 20.4912 107.948 22.364C107.948 24.7495 107.406 26.7307 106.322 28.3079C105.257 29.885 103.788 30.9397 101.915 31.472V29.9935C104.577 30.5455 106.568 31.7776 107.889 33.6899C109.229 35.6022 109.9 37.7412 109.9 40.1069C109.9 42.65 109.427 44.8876 108.48 46.8196C107.554 48.7516 106.134 50.2696 104.222 51.3736C102.31 52.4579 99.9046 53 97.0066 53H78.14ZM86.3017 45.4297H96.1786C97.2629 45.4297 98.2289 45.203 99.0766 44.7496C99.9243 44.2765 100.585 43.6259 101.058 42.7979C101.551 41.9502 101.797 40.9546 101.797 39.8112C101.797 38.8057 101.59 37.9087 101.176 37.1202C100.762 36.3316 100.131 35.7106 99.2836 35.2572C98.4556 34.784 97.4206 34.5475 96.1786 34.5475H86.3017V45.4297ZM86.3017 27.0363H95.0549C95.9617 27.0363 96.77 26.8786 97.4797 26.5632C98.1894 26.2477 98.7513 25.7647 99.1653 25.1142C99.5793 24.4439 99.7863 23.5863 99.7863 22.5415C99.7863 21.2403 99.3821 20.1462 98.5739 19.259C97.7656 18.3719 96.5926 17.9283 95.0549 17.9283H86.3017V27.0363Z" fill="black"/>
<path d="M130.169 53.8872C126.956 53.8872 124.137 53.1676 121.712 51.7285C119.287 50.2893 117.394 48.308 116.034 45.7846C114.693 43.2415 114.023 40.3237 114.023 37.0315C114.023 33.6997 114.713 30.7722 116.093 28.2487C117.473 25.7056 119.376 23.7243 121.8 22.3049C124.225 20.8855 127.015 20.1757 130.169 20.1757C133.383 20.1757 136.202 20.8953 138.627 22.3345C141.071 23.7736 142.974 25.7647 144.334 28.3079C145.694 30.8313 146.374 33.7392 146.374 37.0315C146.374 40.3435 145.684 43.271 144.304 45.8142C142.944 48.3376 141.042 50.3189 138.597 51.758C136.172 53.1775 133.363 53.8872 130.169 53.8872ZM130.169 46.376C132.752 46.376 134.674 45.5086 135.936 43.7737C137.217 42.0192 137.858 39.7717 137.858 37.0315C137.858 34.1926 137.207 31.9255 135.906 30.23C134.625 28.5346 132.712 27.6869 130.169 27.6869C128.415 27.6869 126.975 28.0812 125.852 28.8697C124.728 29.6583 123.89 30.7525 123.338 32.1522C122.806 33.5519 122.54 35.1783 122.54 37.0315C122.54 39.89 123.18 42.167 124.462 43.8625C125.763 45.5382 127.665 46.376 130.169 46.376Z" fill="black"/>
<path d="M153.469 53V9.53003H161.512V53H153.469Z" fill="black"/>
<path d="M183.33 53.8872C180.392 53.8872 177.82 53.1479 175.612 51.6693C173.404 50.1907 171.679 48.1799 170.437 45.6367C169.214 43.0936 168.603 40.2252 168.603 37.0315C168.603 33.7786 169.224 30.8905 170.466 28.367C171.728 25.8239 173.492 23.8229 175.759 22.364C178.027 20.9052 180.688 20.1757 183.744 20.1757C186.78 20.1757 189.333 20.915 191.403 22.3936C193.473 23.8722 195.04 25.883 196.105 28.4262C197.169 30.9693 197.701 33.8377 197.701 37.0315C197.701 40.2252 197.159 43.0936 196.075 45.6367C195.01 48.1799 193.414 50.1907 191.284 51.6693C189.155 53.1479 186.504 53.8872 183.33 53.8872ZM184.631 46.7309C186.425 46.7309 187.854 46.3267 188.919 45.5185C190.003 44.7102 190.782 43.5766 191.255 42.1177C191.728 40.6589 191.965 38.9635 191.965 37.0315C191.965 35.0995 191.728 33.404 191.255 31.9452C190.782 30.4863 190.023 29.3527 188.978 28.5445C187.953 27.7362 186.602 27.332 184.927 27.332C183.133 27.332 181.654 27.7756 180.491 28.6627C179.347 29.5302 178.5 30.7032 177.948 32.1817C177.396 33.6406 177.12 35.2572 177.12 37.0315C177.12 38.8255 177.386 40.4617 177.918 41.9403C178.45 43.3992 179.269 44.5623 180.373 45.4297C181.477 46.2972 182.896 46.7309 184.631 46.7309ZM191.965 53V31.1172H190.959V10.4172H199.062V53H191.965Z" fill="black"/>
<path d="M222.187 53.8872C218.914 53.8872 216.026 53.1873 213.522 51.7876C211.038 50.3682 209.086 48.4263 207.667 45.962C206.267 43.478 205.567 40.6392 205.567 37.4455C205.567 33.956 206.257 30.92 207.637 28.3375C209.017 25.7549 210.92 23.7539 213.345 22.3345C215.77 20.8953 218.559 20.1757 221.713 20.1757C225.065 20.1757 227.914 20.9643 230.26 22.5415C232.606 24.1186 234.34 26.3365 235.464 29.195C236.588 32.0536 236.982 35.4149 236.647 39.2789H228.692V36.3217C228.692 33.0689 228.17 30.7327 227.125 29.3133C226.1 27.8742 224.414 27.1546 222.068 27.1546C219.328 27.1546 217.307 27.9925 216.006 29.6682C214.725 31.3242 214.084 33.7786 214.084 37.0315C214.084 40.0083 214.725 42.3149 216.006 43.9512C217.307 45.5677 219.21 46.376 221.713 46.376C223.291 46.376 224.641 46.031 225.765 45.341C226.888 44.651 227.746 43.6555 228.337 42.3543L236.381 44.6609C235.178 47.5786 233.276 49.8457 230.674 51.4623C228.091 53.0789 225.262 53.8872 222.187 53.8872ZM211.6 39.2789V33.3055H232.773V39.2789H211.6Z" fill="black"/>
<path d="M255.803 53.8872C251.782 53.8872 248.529 52.9803 246.045 51.1666C243.58 49.3332 242.082 46.7506 241.55 43.4189L249.771 42.1769C250.106 43.6752 250.845 44.8482 251.989 45.6959C253.152 46.5436 254.62 46.9675 256.395 46.9675C257.854 46.9675 258.977 46.6915 259.766 46.1395C260.554 45.5677 260.949 44.7792 260.949 43.7737C260.949 43.1429 260.791 42.6402 260.476 42.2656C260.16 41.8713 259.45 41.4869 258.346 41.1123C257.262 40.7377 255.567 40.2449 253.26 39.6337C250.658 38.9635 248.578 38.2143 247.021 37.3863C245.463 36.5583 244.339 35.5726 243.649 34.4292C242.959 33.266 242.614 31.8663 242.614 30.23C242.614 28.1797 243.137 26.4055 244.182 24.9072C245.227 23.3892 246.695 22.226 248.588 21.4177C250.5 20.5897 252.748 20.1757 255.33 20.1757C257.834 20.1757 260.052 20.5602 261.984 21.329C263.916 22.0979 265.473 23.192 266.656 24.6115C267.859 26.0309 268.598 27.7066 268.874 29.6386L260.653 31.1172C260.515 29.9343 260.002 28.9979 259.115 28.3079C258.228 27.6179 257.026 27.2137 255.508 27.0955C254.029 26.9969 252.836 27.194 251.929 27.6869C251.042 28.1797 250.599 28.8895 250.599 29.816C250.599 30.368 250.786 30.8313 251.161 31.2059C251.555 31.5805 252.353 31.9649 253.556 32.3592C254.778 32.7535 256.631 33.266 259.115 33.8969C261.54 34.5277 263.482 35.267 264.941 36.1147C266.419 36.9427 267.494 37.9482 268.164 39.131C268.834 40.2942 269.17 41.7037 269.17 43.3597C269.17 46.6323 267.987 49.205 265.621 51.0779C263.255 52.9507 259.983 53.8872 255.803 53.8872Z" fill="black"/>
<path d="M294.83 53C292.622 53.414 290.454 53.5915 288.324 53.5323C286.215 53.4929 284.322 53.1282 282.647 52.4382C280.991 51.7285 279.729 50.5949 278.862 49.0375C278.073 47.5786 277.659 46.1 277.62 44.6017C277.58 43.0837 277.56 41.3686 277.56 39.4563V12.1915H285.604V38.9832C285.604 40.2252 285.614 41.3489 285.633 42.3543C285.673 43.34 285.88 44.1286 286.254 44.72C286.964 45.8437 288.098 46.4549 289.655 46.5535C291.213 46.652 292.938 46.5732 294.83 46.3169V53ZM272.119 27.2729V21.0629H294.83V27.2729H272.119Z" fill="black"/>
</svg>
